<svg width="847" height="92" viewBox="0 0 847 92" fill="none" xmlns="http://www.w3.org/2000/svg">
<path d="M48.888 54.992C48.888 54.3947 48.8453 54.0107 48.76 53.84C52.9413 53.584 56.184 52.432 58.488 50.384V51.92C58.488 57.04 57.848 61.392 56.568 64.976C55.288 68.6453 53.2827 71.8453 50.552 74.576C47.8213 77.3067 44.6213 79.3547 40.952 80.72C37.368 82.0853 33.1867 82.768 28.408 82.768C25.08 82.768 21.9227 82.4267 18.936 81.744C16.2053 81.1467 13.6027 80.1653 11.128 78.8C8.824 77.6907 6.776 76.2827 4.984 74.576C4.04533 73.7227 3.192 72.8693 2.424 72.016C1.57067 71.0773 0.802666 70.1387 0.12 69.2L14.456 55.632C15.48 56.8267 16.4613 57.8933 17.4 58.832C18.424 59.6853 19.448 60.4533 20.472 61.136C22.3493 62.416 24.568 63.056 27.128 63.056C29.944 63.056 32.1627 62.1173 33.784 60.24C35.4907 58.2773 36.344 55.4613 36.344 51.792V50.512C38.4773 52.3893 41.5067 53.456 45.432 53.712C45.432 53.7973 45.3893 53.8827 45.304 53.968V54.352C44.28 54.5227 43.3413 54.9493 42.488 55.632C41.6347 56.2293 41.08 57.04 40.824 58.064C40.3973 59.7707 39.9707 61.0507 39.544 61.904C39.1173 62.7573 38.7333 63.3973 38.392 63.824C38.0507 64.1653 37.752 64.4213 37.496 64.592C37.3253 64.6773 37.1973 64.848 37.112 65.104C36.9413 65.4453 37.24 65.872 38.008 66.384C38.8613 66.8107 39.928 67.2373 41.208 67.664C41.976 68.0053 42.6587 68.2187 43.256 68.304C43.6827 68.4747 44.0667 68.6027 44.408 68.688C44.8347 68.7733 45.2613 68.8587 45.688 68.944C46.968 69.1147 47.992 69.2 48.76 69.2C49.6133 69.2 50.1253 69.0293 50.296 68.688C50.4667 68.0053 50.424 67.024 50.168 65.744C49.912 64.3787 50.0827 62.7147 50.68 60.752C50.936 59.728 50.8933 58.7467 50.552 57.808C50.2107 56.784 49.5707 55.9307 48.632 55.248C48.632 55.248 48.7173 55.1627 48.888 54.992ZM44.92 69.584C44.5787 69.4987 44.2373 69.4133 43.896 69.328C43.5547 69.2427 43.1707 69.1573 42.744 69.072C42.488 68.9867 42.1893 68.9013 41.848 68.816C41.592 68.7307 41.336 68.6453 41.08 68.56C40.9093 68.7307 40.824 68.9013 40.824 69.072C40.6533 69.584 40.696 70.096 40.952 70.608C41.2933 71.12 41.7627 71.4613 42.36 71.632C42.872 71.8027 43.384 71.76 43.896 71.504C44.408 71.1627 44.7493 70.6933 44.92 70.096V69.584ZM45.944 30.288C45.7733 30.288 45.6027 30.3307 45.432 30.416C45.2613 30.416 45.0907 30.416 44.92 30.416C44.7493 30.5013 44.5787 30.5867 44.408 30.672C44.2373 30.672 44.0667 30.7147 43.896 30.8V30.672C43.8107 30.5013 43.8107 30.3307 43.896 30.16C43.9813 29.904 44.1093 29.6907 44.28 29.52C44.6213 29.6053 45.0907 29.648 45.688 29.648C45.7733 29.7333 45.816 29.8187 45.816 29.904C45.816 29.9893 45.8587 30.0747 45.944 30.16V30.288ZM47.736 6.224C47.8213 6.05333 47.9493 5.88266 48.12 5.712C48.632 5.712 49.016 5.66933 49.272 5.584C49.784 5.92533 49.9547 6.35199 49.784 6.864C49.784 6.864 49.7413 6.90666 49.656 6.992C49.4 6.73599 49.1013 6.60799 48.76 6.60799C48.5893 6.52266 48.4187 6.48 48.248 6.48C48.0773 6.48 47.9067 6.43733 47.736 6.352V6.224ZM57.336 0.719994C56.3973 1.65866 55.032 2.42666 53.24 3.02399C51.448 3.536 49.4853 3.792 47.352 3.792C45.1333 3.792 43.128 3.536 41.336 3.02399C39.6293 2.42666 38.3067 1.65866 37.368 0.719994H57.336ZM50.296 5.584C53.7947 5.072 56.5253 3.96266 58.488 2.256V23.504L58.104 24.016C57.336 25.04 55.9707 25.936 54.008 26.704C52.0453 27.472 49.8267 27.856 47.352 27.856C44.8773 27.856 42.6587 27.5147 40.696 26.832C38.8187 26.064 37.4533 25.1253 36.6 24.016L36.344 23.632V2.384C37.5387 3.408 39.0747 4.21866 40.952 4.81599C42.8293 5.41333 44.8773 5.712 47.096 5.712C47.096 5.79733 47.0533 5.88266 46.968 5.96799C46.968 5.96799 46.968 6.01066 46.968 6.09599V6.48C45.944 6.56533 45.0053 6.94933 44.152 7.632C43.2987 8.22933 42.744 9.08266 42.488 10.192C42.0613 11.8987 41.6347 13.1787 41.208 14.032C40.7813 14.8 40.3973 15.3973 40.056 15.824C39.7147 16.1653 39.416 16.4213 39.16 16.592C38.9893 16.7627 38.8613 16.976 38.776 17.232C38.6053 17.5733 38.904 18 39.672 18.512C40.5253 18.9387 41.592 19.3653 42.872 19.792C43.2133 19.9627 43.5547 20.0907 43.896 20.176C44.2373 20.176 44.5787 20.2613 44.92 20.432C45.6027 20.6027 46.456 20.7733 47.48 20.944C48.6747 21.2 49.6987 21.328 50.552 21.328C51.4053 21.2427 51.8747 21.072 51.96 20.816C52.1307 20.1333 52.088 19.152 51.832 17.872C51.576 16.5067 51.7467 14.8427 52.344 12.88C52.6 11.7707 52.5573 10.7467 52.216 9.808C51.8747 8.784 51.2773 7.97333 50.424 7.376C50.424 7.20533 50.4667 7.07733 50.552 6.992C50.6373 6.48 50.552 6.01067 50.296 5.584ZM46.584 22.224C46.584 22.0533 46.584 21.968 46.584 21.968C46.6693 21.8827 46.712 21.7547 46.712 21.584C46.2853 21.4987 45.9013 21.456 45.56 21.456C45.2187 21.3707 44.8773 21.2427 44.536 21.072C43.6827 20.9013 43.0853 20.7307 42.744 20.56C42.5733 20.7307 42.488 20.9013 42.488 21.072C42.3173 21.6693 42.36 22.224 42.616 22.736C42.9573 23.1627 43.4267 23.4613 44.024 23.632C44.536 23.8027 45.048 23.76 45.56 23.504C46.072 23.1627 46.4133 22.736 46.584 22.224ZM47.352 29.776C49.656 29.776 51.7893 29.4773 53.752 28.88C55.7147 28.2827 57.2933 27.4293 58.488 26.32V47.44L58.104 48.08C57.336 49.104 55.9707 50 54.008 50.768C52.0453 51.536 49.8267 51.92 47.352 51.92C44.8773 51.92 42.6587 51.536 40.696 50.768C38.8187 50 37.4533 49.104 36.6 48.08L36.344 47.696V26.448C38.0507 27.8987 40.3973 28.88 43.384 29.392C43.128 29.9893 43.0427 30.5013 43.128 30.928C43.128 31.0133 43.128 31.0987 43.128 31.184C43.2133 31.184 43.256 31.2267 43.256 31.312C42.4027 31.9093 41.8053 32.72 41.464 33.744C41.1227 34.6827 41.08 35.664 41.336 36.688C41.9333 38.6507 42.104 40.3147 41.848 41.68C41.592 43.0453 41.5493 44.0693 41.72 44.752C41.8053 45.008 42.2747 45.1787 43.128 45.264C43.9813 45.264 45.0053 45.136 46.2 44.88C46.6267 44.7947 47.0533 44.7093 47.48 44.624C47.9067 44.5387 48.3333 44.4533 48.76 44.368C49.6133 44.0267 50.2533 43.8133 50.68 43.728C52.0453 43.3013 53.112 42.832 53.88 42.32C54.648 41.808 54.9893 41.3813 54.904 41.04C54.8187 40.784 54.648 40.6133 54.392 40.528C54.2213 40.3573 53.9653 40.1013 53.624 39.76C53.2827 39.3333 52.8987 38.6933 52.472 37.84C52.0453 36.9867 51.6187 35.7067 51.192 34C50.8507 32.976 50.2533 32.1653 49.4 31.568C48.632 30.8853 47.736 30.4587 46.712 30.288V29.904C46.6267 29.904 46.584 29.8613 46.584 29.776H47.352ZM49.656 47.568C50.2533 47.3973 50.68 47.056 50.936 46.544C51.2773 46.032 51.3627 45.52 51.192 45.008C51.0213 44.6667 50.936 44.496 50.936 44.496C50.68 44.5813 50.3813 44.6667 50.04 44.752C49.784 44.8373 49.4853 44.9227 49.144 45.008C48.5467 45.1787 47.8213 45.3493 46.968 45.52C46.968 45.776 47.0107 45.9467 47.096 46.032C47.2667 46.6293 47.5653 47.0987 47.992 47.44C48.504 47.696 49.0587 47.7387 49.656 47.568ZM47.992 54.864C47.8213 54.7787 47.6507 54.736 47.48 54.736C47.3947 54.6507 47.2667 54.5653 47.096 54.48C46.9253 54.48 46.7547 54.48 46.584 54.48C46.4133 54.3947 46.2427 54.352 46.072 54.352V54.224C46.072 54.1387 46.1573 54.0107 46.328 53.84H47.352H47.864C48.0347 54.0107 48.12 54.3093 48.12 54.736C48.12 54.8213 48.0773 54.864 47.992 54.864ZM144.262 25.808C146.395 30.672 147.462 36.048 147.462 41.936V42.192C147.462 47.9093 146.395 53.2853 144.262 58.32C143.835 59.1733 143.409 60.0267 142.982 60.88C142.641 61.648 142.214 62.416 141.702 63.184C141.787 63.6107 141.83 63.9947 141.83 64.336C141.915 64.6773 141.958 65.0613 141.958 65.488C141.958 68.048 141.489 70.4373 140.55 72.656C139.611 74.8747 138.289 76.8373 136.582 78.544C134.961 80.1653 133.041 81.4453 130.822 82.384C128.603 83.3227 126.214 83.792 123.654 83.792C120.923 83.792 118.491 83.28 116.358 82.256C112.518 83.28 108.465 83.792 104.198 83.792C100.614 83.792 97.158 83.408 93.83 82.64C91.8673 83.408 89.8193 83.792 87.686 83.792C85.2967 83.792 83.0353 83.3653 80.902 82.512C78.7687 81.6587 76.8913 80.5067 75.27 79.056C73.6487 77.52 72.326 75.728 71.302 73.68C70.278 71.632 69.6807 69.456 69.51 67.152C68.486 65.872 67.5473 64.5067 66.694 63.056C65.8407 61.6053 65.0727 60.0693 64.39 58.448C62.2567 53.584 61.19 48.208 61.19 42.32V42.192C61.19 36.3893 62.2567 30.9707 64.39 25.936C66.5233 20.9867 69.5953 16.5493 73.606 12.624C77.446 8.95466 82.0113 6.01066 87.302 3.792C92.678 1.57333 98.3953 0.463997 104.454 0.463997C110.513 0.463997 116.23 1.57333 121.606 3.792C126.982 6.01066 131.505 8.95466 135.174 12.624C139.099 16.464 142.129 20.8587 144.262 25.808ZM89.35 26.832C89.1793 27.0027 89.0513 27.1733 88.966 27.344C88.8807 27.5147 88.7527 27.6853 88.582 27.856L124.422 37.84C124.166 36.4747 123.782 35.152 123.27 33.872C122.331 31.2267 120.923 28.9653 119.046 27.088C118.107 26.064 117.083 25.168 115.974 24.4C114.95 23.632 113.798 22.9067 112.518 22.224C110.043 21.1147 107.27 20.56 104.198 20.56C100.955 20.56 98.182 21.1147 95.878 22.224C94.598 22.8213 93.4033 23.504 92.294 24.272C91.27 25.04 90.2887 25.8933 89.35 26.832ZM92.806 30.544C92.3793 32.592 92.422 34.5973 92.934 36.56C93.446 38.5227 94.2993 40.3147 95.494 41.936L103.942 33.616L92.806 30.544ZM96.646 43.216C97.414 43.984 98.31 44.6667 99.334 45.264C100.358 45.8613 101.467 46.3307 102.662 46.672C103.771 47.0133 105.009 47.184 106.374 47.184C106.886 47.184 107.355 47.184 107.782 47.184C108.294 47.184 108.763 47.0987 109.19 46.928L105.99 34.256H105.734L96.646 43.216ZM110.854 46.544C115.035 45.0933 117.937 42.2773 119.558 38.096L107.782 34.768L110.854 46.544ZM90.886 29.008C90.9713 28.8373 91.014 28.6667 91.014 28.496L89.222 27.984C89.1367 28.1547 89.094 28.368 89.094 28.624C89.0087 28.7093 88.966 28.9227 88.966 29.264C88.71 30.544 88.582 31.9093 88.582 33.36C88.582 37.2853 89.734 40.8693 92.038 44.112C94.4273 47.2693 97.6273 49.4027 101.638 50.512C102.406 50.768 103.174 50.9387 103.942 51.024C104.795 51.1093 105.606 51.152 106.374 51.152C110.129 51.152 113.542 50.0427 116.614 47.824C119.771 45.52 121.99 42.5333 123.27 38.864C123.355 38.6933 123.398 38.608 123.398 38.608C123.398 38.5227 123.441 38.3947 123.526 38.224C123.526 37.968 123.569 37.7973 123.654 37.712L121.734 37.2C121.734 37.3707 121.691 37.4987 121.606 37.584V37.712C121.606 37.8827 121.563 38.0107 121.478 38.096C121.478 38.096 121.478 38.1813 121.478 38.352C120.539 40.7413 119.174 42.832 117.382 44.624C115.59 46.3307 113.585 47.6107 111.366 48.464H111.238C109.702 48.976 108.081 49.232 106.374 49.232C104.838 49.232 103.43 49.0613 102.15 48.72C98.566 47.696 95.7073 45.776 93.574 42.96C91.526 40.0587 90.502 36.8587 90.502 33.36C90.502 32.7627 90.502 32.1653 90.502 31.568C90.502 30.9707 90.5873 30.3733 90.758 29.776C90.758 29.6053 90.758 29.4773 90.758 29.392C90.8433 29.3067 90.886 29.2213 90.886 29.136V29.008ZM87.686 47.312C88.198 47.312 88.71 47.312 89.222 47.312C89.734 47.312 90.2033 47.3973 90.63 47.568C89.6913 46.288 88.838 45.0507 88.07 43.856C87.1313 42.1493 86.4487 40.4 86.022 38.608C85.5953 36.816 85.4247 34.9813 85.51 33.104C85.3393 33.4453 85.254 33.616 85.254 33.616C84.3153 36.432 83.846 39.2053 83.846 41.936V42.192C83.846 43.8133 84.0593 45.6053 84.486 47.568C84.998 47.3973 85.51 47.312 86.022 47.312C86.534 47.312 87.0887 47.312 87.686 47.312ZM105.606 62.544C106.203 59.3013 107.526 56.4 109.574 53.84C108.294 54.096 107.014 54.224 105.734 54.224C104.369 54.224 103.003 54.096 101.638 53.84C103.771 56.4 105.094 59.3013 105.606 62.544ZM124.806 42.192V41.04C123.867 43.5147 122.545 45.648 120.838 47.44C121.265 47.3547 121.734 47.312 122.246 47.312C122.758 47.312 123.227 47.312 123.654 47.312H124.294C124.635 45.8613 124.806 44.1973 124.806 42.32V42.192ZM184.714 54.736L200.202 82H184.714V54.736ZM190.986 57.552C190.73 57.552 190.431 57.3813 190.09 57.04L178.954 37.456C178.783 37.2 178.783 36.9013 178.954 36.56C178.527 36.6453 177.973 36.688 177.29 36.688C176.351 36.688 175.669 36.6027 175.242 36.432C174.815 36.432 174.431 36.304 174.09 36.048C173.237 35.6213 172.597 35.0667 172.17 34.384C171.658 33.36 171.53 32.1653 171.786 30.8L154.25 1.87199H179.594L190.346 20.944C191.37 21.3707 192.053 22.0107 192.394 22.864C192.821 23.5467 192.991 24.4 192.906 25.424V25.552C192.821 26.6613 192.351 27.8133 191.498 29.008C190.133 31.056 188.127 32.8053 185.482 34.256C183.775 35.28 182.111 35.9627 180.49 36.304C180.575 36.304 180.618 36.3467 180.618 36.432L191.754 56.016C191.925 56.272 191.967 56.528 191.882 56.784C191.797 57.04 191.669 57.2533 191.498 57.424C191.327 57.424 191.199 57.4667 191.114 57.552C191.114 57.552 191.071 57.552 190.986 57.552ZM178.314 34.128C178.57 34.128 178.826 34.128 179.082 34.128C179.338 34.0427 179.594 34 179.85 34C182.069 33.5733 184.245 32.6347 186.378 31.184C188.511 29.7333 190.047 28.1973 190.986 26.576C191.413 25.6373 191.498 24.7413 191.242 23.888C191.157 23.8027 191.114 23.7173 191.114 23.632C190.517 22.5227 189.279 21.968 187.402 21.968C185.013 21.968 182.495 22.736 179.85 24.272C177.375 25.6373 175.541 27.2587 174.346 29.136C173.151 30.928 172.895 32.4213 173.578 33.616L173.706 33.744C174.303 34.512 175.327 34.9813 176.778 35.152C176.266 34.9813 175.882 34.8107 175.626 34.64C175.114 34.128 174.815 33.6587 174.73 33.232C174.645 33.0613 174.602 32.8053 174.602 32.464C174.602 31.7813 174.773 31.0987 175.114 30.416C175.797 29.136 176.863 27.984 178.314 26.96C179.85 25.936 181.471 25.296 183.178 25.04C183.434 24.9547 183.818 24.912 184.33 24.912C185.098 24.912 185.695 25.0827 186.122 25.424C186.463 25.5093 186.719 25.808 186.89 26.32V26.96C186.89 27.3867 186.762 27.856 186.506 28.368C186.079 29.2213 185.354 29.9893 184.33 30.672C183.391 31.3547 182.367 31.7813 181.258 31.952C181.087 32.0373 180.831 32.08 180.49 32.08C179.978 32.08 179.551 31.952 179.21 31.696C178.869 31.5253 178.698 31.312 178.698 31.056C178.613 30.8853 178.57 30.672 178.57 30.416C178.57 30.16 178.655 29.8613 178.826 29.52C179.509 28.1547 180.703 27.344 182.41 27.088C182.495 27.0027 182.666 26.96 182.922 26.96C183.093 26.96 183.434 27.0453 183.946 27.216C184.031 27.3013 184.074 27.3867 184.074 27.472C184.159 27.5573 184.245 27.6427 184.33 27.728V28.24C184.33 28.5813 184.287 28.8373 184.202 29.008L183.818 29.392C184.586 28.88 185.098 28.3253 185.354 27.728C185.525 27.5573 185.61 27.3013 185.61 26.96C185.61 26.704 185.525 26.5333 185.354 26.448C185.183 26.2773 184.842 26.192 184.33 26.192H183.434C181.983 26.448 180.533 27.088 179.082 28.112C177.717 29.0507 176.778 30.032 176.266 31.056C176.01 31.568 175.882 32.0373 175.882 32.464V32.592C175.882 33.0187 176.053 33.36 176.394 33.616C176.906 33.9573 177.546 34.128 178.314 34.128ZM182.922 28.24H182.666C182.154 28.3253 181.685 28.5387 181.258 28.88C181.429 29.0507 181.514 29.2213 181.514 29.392C182.197 29.2213 182.666 28.9227 182.922 28.496C182.922 28.496 182.965 28.4533 183.05 28.368V28.24H182.922ZM181.258 30.672C181.002 30.672 180.789 30.5867 180.618 30.416C180.447 30.416 180.319 30.288 180.234 30.032V29.648C180.063 29.8187 179.978 29.9467 179.978 30.032C179.893 30.1173 179.85 30.2027 179.85 30.288V30.416V30.672C179.935 30.672 180.021 30.7147 180.106 30.8C180.191 30.8 180.319 30.8 180.49 30.8C180.746 30.8 180.917 30.7573 181.002 30.672H181.258ZM188.81 42.704C188.981 42.5333 189.194 42.4907 189.45 42.576C189.706 42.6613 189.919 42.7893 190.09 42.96L200.586 61.392C200.927 61.904 200.799 62.3307 200.202 62.672C200.117 62.672 200.031 62.7147 199.946 62.8C199.861 62.8 199.775 62.8 199.69 62.8C199.349 62.8 199.093 62.6293 198.922 62.288L188.426 43.984C188.17 43.3867 188.298 42.96 188.81 42.704ZM206.09 58.576C206.431 59.1733 206.346 59.6427 205.834 59.984C205.663 59.984 205.535 60.0267 205.45 60.112C205.45 60.112 205.407 60.112 205.322 60.112C205.066 60.112 204.767 59.9413 204.426 59.6L200.074 51.792C199.733 51.28 199.861 50.8533 200.458 50.512C200.97 50.1707 201.397 50.2987 201.738 50.896L206.09 58.576ZM187.786 35.536C188.469 35.1947 188.938 35.3227 189.194 35.92L195.85 47.824C196.191 48.336 196.106 48.7627 195.594 49.104C195.423 49.1893 195.253 49.232 195.082 49.232C194.741 49.232 194.442 49.0613 194.186 48.72L187.53 36.816C187.189 36.304 187.274 35.8773 187.786 35.536ZM203.786 74.576C204.127 75.088 203.999 75.5147 203.402 75.856C203.317 75.9413 203.146 75.984 202.89 75.984C202.463 75.984 202.207 75.8133 202.122 75.472L197.258 67.024C197.002 66.4267 197.13 66 197.642 65.744C198.154 65.4027 198.581 65.488 198.922 66L203.786 74.576ZM212.234 79.056C212.49 79.4827 212.362 79.952 211.85 80.464C211.765 80.464 211.679 80.5067 211.594 80.592C211.509 80.592 211.423 80.592 211.338 80.592C210.997 80.592 210.741 80.4213 210.57 80.08L206.986 73.936L204.17 68.816C203.829 68.304 203.914 67.8773 204.426 67.536C205.109 67.1947 205.578 67.3227 205.834 67.92L206.986 69.968L212.234 79.056ZM215.434 72.528C215.69 73.1253 215.605 73.552 215.178 73.808C215.007 73.8933 214.837 73.936 214.666 73.936C214.325 73.936 214.026 73.7653 213.77 73.424L211.85 70.096C211.509 69.584 211.637 69.1573 212.234 68.816C212.831 68.56 213.258 68.688 213.514 69.2L215.434 72.528ZM205.066 63.312C205.663 63.056 206.09 63.184 206.346 63.696L206.986 64.72L209.29 68.816C209.546 69.4133 209.418 69.84 208.906 70.096C208.821 70.1813 208.693 70.224 208.522 70.224C208.181 70.224 207.882 70.0533 207.626 69.712L206.986 68.688L204.682 64.592C204.341 64.08 204.469 63.6533 205.066 63.312ZM222.09 45.648C221.066 47.0987 221.151 48.464 222.346 49.744C222.261 49.6587 222.09 49.616 221.834 49.616C220.383 49.36 219.274 49.7867 218.506 50.896C218.421 50.9813 218.335 51.0667 218.25 51.152C218.25 51.2373 218.207 51.3227 218.122 51.408C217.951 50.4693 217.525 49.744 216.842 49.232C216.671 49.1467 216.543 49.104 216.458 49.104C216.458 49.0187 216.373 48.9333 216.202 48.848H216.074H215.946C215.946 48.848 215.903 48.8053 215.818 48.72H215.69H215.562H215.434C215.434 48.6347 215.349 48.592 215.178 48.592H214.922C214.239 48.592 213.685 48.7627 213.258 49.104C213.514 47.7387 213.087 46.6293 211.978 45.776C211.807 45.6053 211.637 45.52 211.466 45.52C211.295 45.4347 211.125 45.3493 210.954 45.264L207.37 51.024L196.106 30.928L212.618 1.87199H237.45L213.898 40.4C214.069 40.656 214.41 41.04 214.922 41.552C215.007 41.6373 215.05 41.68 215.05 41.68C215.135 41.68 215.221 41.7227 215.306 41.808H215.562C215.562 41.8933 215.605 41.936 215.69 41.936H215.946C216.799 42.192 217.61 42.1067 218.378 41.68H218.506C218.165 43.0453 218.591 44.112 219.786 44.88C220.042 45.136 220.426 45.3493 220.938 45.52H222.218C222.218 45.52 222.175 45.5627 222.09 45.648ZM204.17 20.944C204.938 21.8827 205.279 22.8213 205.194 23.76C205.023 25.2107 204.255 26.1493 202.89 26.576C204.17 27.2587 204.682 28.2827 204.426 29.648C204.426 30.5867 203.999 31.3547 203.146 31.952H203.786C204.554 32.0373 205.194 32.3787 205.706 32.976C206.218 33.488 206.517 34.128 206.602 34.896C206.858 34.2133 207.285 33.6587 207.882 33.232C208.565 32.72 209.29 32.5493 210.058 32.72H210.314C209.717 32.0373 209.503 31.2267 209.674 30.288C209.845 28.9227 210.57 28.0267 211.85 27.6C210.655 26.832 210.143 25.7653 210.314 24.4C210.399 23.376 210.911 22.5653 211.85 21.968H211.338C210.57 21.8827 209.93 21.584 209.418 21.072C208.906 20.4747 208.607 19.792 208.522 19.024C208.266 19.7067 207.797 20.304 207.114 20.816C206.517 21.2427 205.834 21.3707 205.066 21.2C204.81 21.2 204.511 21.1147 204.17 20.944ZM201.482 39.12C202.165 39.5467 202.89 39.7173 203.658 39.632C204.511 39.5467 205.151 39.1627 205.578 38.48C206.09 37.7973 206.261 37.072 206.09 36.304C206.005 35.4507 205.621 34.8107 204.938 34.384C204.255 33.872 203.487 33.7013 202.634 33.872C201.866 33.9573 201.269 34.3413 200.842 35.024C200.415 35.7067 200.245 36.4747 200.33 37.328C200.415 38.096 200.799 38.6933 201.482 39.12ZM208.778 43.728C209.631 42.2773 209.418 41.04 208.138 40.016C206.687 39.1627 205.45 39.376 204.426 40.656C203.999 41.2533 203.829 41.936 203.914 42.704C204.085 43.3867 204.469 43.9413 205.066 44.368C205.663 44.7947 206.303 44.9653 206.986 44.88C207.754 44.7093 208.351 44.3253 208.778 43.728ZM212.234 38.608C212.661 38.0107 212.831 37.328 212.746 36.56C212.661 35.792 212.277 35.1947 211.594 34.768C210.911 34.3413 210.186 34.2133 209.418 34.384C208.735 34.4693 208.181 34.8533 207.754 35.536C207.327 36.1333 207.157 36.816 207.242 37.584C207.413 38.352 207.797 38.9493 208.394 39.376C209.077 39.8027 209.759 39.9733 210.442 39.888C211.21 39.7173 211.807 39.2907 212.234 38.608ZM272.467 32.72V32.592H272.595L272.467 32.72ZM276.051 48.464C276.563 49.0613 277.032 49.6587 277.459 50.256H269.523L269.011 48.976C269.864 48.5493 270.419 47.952 270.675 47.184C270.846 47.184 271.016 47.184 271.187 47.184C271.443 47.0987 271.656 47.056 271.827 47.056C273.278 47.056 274.686 47.5253 276.051 48.464ZM252.115 67.536C251.176 69.9253 250.707 72.6133 250.707 75.6C250.707 78.0747 251.006 80.208 251.603 82H241.875V54.48C242.728 54.736 243.667 54.864 244.691 54.864C245.8 54.864 246.824 54.6933 247.763 54.352C249.555 53.84 251.006 52.7733 252.115 51.152L250.707 54.352C249.768 56.0587 249.299 57.8933 249.299 59.856C249.299 62.8427 250.238 65.4027 252.115 67.536ZM267.091 69.84C267.603 71.5467 267.859 73.4667 267.859 75.6C267.859 77.8187 267.518 79.952 266.835 82H254.931C254.248 79.952 253.907 77.8187 253.907 75.6C253.907 73.4667 254.163 71.504 254.675 69.712C256.638 70.992 258.728 71.632 260.947 71.632C263.166 71.632 265.214 71.0347 267.091 69.84ZM270.931 75.6C270.931 72.6133 270.504 70.0107 269.651 67.792C270.931 66.3413 271.784 64.7627 272.211 63.056H307.155V82H270.163C270.675 80.1227 270.931 77.9893 270.931 75.6ZM271.827 36.944C272.51 37.0293 273.192 36.944 273.875 36.688C274.558 36.432 275.112 35.9627 275.539 35.28C275.966 34.5973 276.307 33.7013 276.563 32.592H302.547V50.256H280.915C280.232 48.464 279.251 47.056 277.971 46.032C276.264 44.6667 274.216 43.984 271.827 43.984C271.144 43.984 270.632 44.0267 270.291 44.112C269.608 43.344 268.798 42.96 267.859 42.96H267.347C269.566 41.424 271.059 39.4187 271.827 36.944ZM246.739 51.408C246.056 51.664 245.374 51.792 244.691 51.792C243.838 51.792 242.899 51.5787 241.875 51.152V1.35999H306.515V20.432H267.603L261.459 7.12C262.739 6.69333 263.379 5.79733 263.379 4.432C263.379 3.664 263.08 3.024 262.483 2.51199C261.971 1.91466 261.331 1.616 260.563 1.616C259.795 1.616 259.112 1.91466 258.515 2.51199C258.003 3.024 257.747 3.664 257.747 4.432C257.747 5.11466 257.918 5.712 258.259 6.224C258.686 6.65067 259.155 6.94933 259.667 7.12L252.627 22.608C251.432 23.0347 250.195 23.6747 248.915 24.528C248.574 24.784 248.36 25.1253 248.275 25.552C248.275 25.9787 248.403 26.3627 248.659 26.704C249.086 27.3013 249.598 27.5147 250.195 27.344C249.342 28.88 248.83 30.5867 248.659 32.464L245.459 27.216C245.032 27.472 244.734 27.984 244.563 28.752C244.478 29.4347 244.435 30.2027 244.435 31.056C244.52 31.824 244.691 32.6347 244.947 33.488C245.203 34.256 245.459 34.8533 245.715 35.28C246.568 36.56 247.763 37.1147 249.299 36.944C250.238 39.5893 251.774 41.5947 253.907 42.96H253.267C252.414 42.96 251.688 43.2587 251.091 43.856C250.494 44.4533 250.195 45.1787 250.195 46.032C250.195 46.7147 250.366 47.2693 250.707 47.696C250.28 48.6347 249.726 49.4453 249.043 50.128C248.446 50.7253 247.678 51.152 246.739 51.408ZM231.891 51.664C231.294 51.4933 230.995 51.0667 230.995 50.384C231.08 50.128 231.251 49.9147 231.507 49.744C231.678 49.488 231.934 49.4027 232.275 49.488L234.579 49.744L237.395 51.664C237.48 51.7493 237.566 51.792 237.651 51.792C237.822 52.1333 237.907 52.304 237.907 52.304H237.651L231.891 51.664ZM236.883 50.128L234.579 49.744L232.659 48.464C232.062 48.0373 231.934 47.5253 232.275 46.928C232.702 46.3307 233.214 46.2453 233.811 46.672L235.731 47.952L236.883 50.128ZM237.651 51.792C237.566 51.792 237.48 51.7493 237.395 51.664L234.579 49.744L236.883 50.128L237.395 51.024C237.395 51.024 237.48 51.1093 237.651 51.28C237.651 51.28 237.651 51.4507 237.651 51.792ZM237.779 49.36L235.731 47.952L234.707 45.904C234.28 45.3067 234.408 44.8373 235.091 44.496C235.774 44.1547 236.243 44.2827 236.499 44.88L237.651 46.928L237.779 49.36ZM236.883 50.128L235.731 47.952L237.779 49.36V50.256L236.883 50.128ZM237.779 50.64C237.694 50.7253 237.651 50.9387 237.651 51.28C237.48 51.1093 237.395 51.024 237.395 51.024L236.883 50.128L237.779 50.256V50.384V50.64ZM239.955 50C239.614 49.8293 239.358 49.744 239.187 49.744L237.651 46.928V44.624C237.651 43.856 237.992 43.472 238.675 43.472C239.358 43.472 239.699 43.8133 239.699 44.496L239.955 50ZM237.779 49.36L237.651 46.928L239.187 49.744C239.016 49.744 238.931 49.7867 238.931 49.872C238.846 49.872 238.718 49.872 238.547 49.872L237.779 49.36ZM237.907 50.256H237.779V49.36L238.547 49.872C238.462 49.9573 238.376 50.0427 238.291 50.128C238.206 50.128 238.12 50.1707 238.035 50.256H237.907ZM237.779 50.384V50.256H237.907H238.035L237.907 50.384C237.907 50.4693 237.907 50.512 237.907 50.512C237.822 50.512 237.779 50.5547 237.779 50.64V50.384ZM281.171 56.016L281.555 55.248L284.883 59.6C285.31 60.1973 285.224 60.7093 284.627 61.136C284.456 61.3067 284.2 61.392 283.859 61.392C283.603 61.3067 283.39 61.136 283.219 60.88L281.683 58.96L281.171 56.016ZM280.275 57.168L281.683 58.96L282.195 61.392C282.195 61.648 282.11 61.904 281.939 62.16C281.768 62.416 281.555 62.544 281.299 62.544C280.616 62.7147 280.19 62.4587 280.019 61.776L279.635 59.344L280.275 57.168ZM280.531 56.4C280.702 56.4 280.787 56.3573 280.787 56.272C280.872 56.1867 281 56.1013 281.171 56.016L281.683 58.96L280.275 57.168L280.531 56.4ZM279.123 57.04L279.635 59.344L278.867 61.648C278.696 62.3307 278.27 62.5867 277.587 62.416C276.904 62.2453 276.648 61.8187 276.819 61.136L277.587 58.832L279.123 57.04ZM279.891 56.528C280.147 56.528 280.36 56.4853 280.531 56.4L280.275 57.168L279.763 56.528L280.275 57.168L279.635 59.344L279.123 57.04L279.763 56.528H279.891ZM278.355 54.864C278.355 55.2053 278.398 55.4187 278.483 55.504L277.587 58.832L275.923 60.496C275.411 61.1787 274.899 61.1787 274.387 60.496C273.875 60.0693 273.875 59.6 274.387 59.088L278.355 54.864ZM279.123 57.04L277.587 58.832L278.483 55.504C278.654 55.8453 278.824 56.1013 278.995 56.272L279.123 57.04ZM278.995 56.272C279.336 56.4427 279.592 56.528 279.763 56.528L279.123 57.04L278.995 56.272ZM254.035 43.088C254.291 43.2587 254.504 43.4293 254.675 43.6C254.931 43.6853 255.187 43.7707 255.443 43.856L254.675 45.648C254.163 44.7947 253.95 43.9413 254.035 43.088ZM256.467 46.032C256.467 45.264 256.168 44.5813 255.571 43.984C257.107 44.6667 258.643 45.008 260.179 45.008C259.838 45.6907 259.283 46.2027 258.515 46.544C257.832 46.8853 257.107 46.928 256.339 46.672C256.424 46.5867 256.467 46.3733 256.467 46.032ZM255.571 43.984C256.168 44.5813 256.467 45.264 256.467 46.032C256.467 46.3733 256.424 46.5867 256.339 46.672C256.168 46.672 256.04 46.6293 255.955 46.544C255.614 46.4587 255.187 46.16 254.675 45.648L255.443 43.856L255.571 43.984ZM266.579 43.728L266.451 43.472H266.579V43.728ZM265.555 43.984C264.958 44.5813 264.659 45.264 264.659 46.032C264.659 46.1173 264.659 46.2027 264.659 46.288C264.744 46.3733 264.787 46.4587 264.787 46.544H264.659C263.806 46.9707 262.995 47.0133 262.227 46.672C261.459 46.3307 260.862 45.776 260.435 45.008L260.563 45.136C261.502 45.136 262.355 45.0507 263.123 44.88C263.976 44.624 264.787 44.3253 265.555 43.984ZM266.579 43.728C266.579 45.0933 265.982 46.032 264.787 46.544C264.787 46.4587 264.744 46.3733 264.659 46.288C264.659 46.2027 264.659 46.1173 264.659 46.032C264.659 45.264 264.958 44.5813 265.555 43.984C265.726 43.8987 265.854 43.856 265.939 43.856C266.11 43.7707 266.28 43.6427 266.451 43.472L266.579 43.728ZM270.163 26.192L268.627 22.608C270.078 23.2053 271.272 23.8453 272.211 24.528C272.638 24.784 272.851 25.1253 272.851 25.552C272.936 25.9787 272.851 26.3627 272.595 26.704C272.168 27.1307 271.742 27.344 271.315 27.344H270.931L270.163 26.192ZM250.963 26.192L250.195 27.344C249.598 27.5147 249.086 27.3013 248.659 26.704C248.403 26.3627 248.275 25.9787 248.275 25.552C248.36 25.1253 248.574 24.784 248.915 24.528C250.195 23.6747 251.432 23.0347 252.627 22.608L250.963 26.192ZM263.891 21.456C265.512 21.712 267.091 22.096 268.627 22.608L270.163 26.192C268.627 23.9733 266.536 22.48 263.891 21.712V21.456ZM260.563 21.328C258.6 21.328 256.766 21.7973 255.059 22.736C253.438 23.5893 252.072 24.7413 250.963 26.192L252.627 22.608C255.016 21.6693 257.662 21.2 260.563 21.2C261.16 21.2 261.715 21.2427 262.227 21.328C262.739 21.328 263.294 21.3707 263.891 21.456V21.712C262.867 21.456 261.758 21.328 260.563 21.328ZM270.163 26.192L270.931 27.344C270.846 27.344 270.803 27.344 270.803 27.344C270.803 27.2587 270.76 27.216 270.675 27.216L270.163 26.192ZM250.451 27.216C250.451 27.216 250.366 27.2587 250.195 27.344L250.963 26.192L250.451 27.216ZM270.419 27.088C268.627 25.8933 266.451 25.0827 263.891 24.656V21.712C266.536 22.48 268.627 23.9733 270.163 26.192L270.675 27.216C270.59 27.216 270.504 27.1733 270.419 27.088ZM250.963 26.192C252.072 24.7413 253.438 23.5893 255.059 22.736C256.766 21.7973 258.6 21.328 260.563 21.328C261.758 21.328 262.867 21.456 263.891 21.712V24.656C263.379 24.4853 262.824 24.4 262.227 24.4C261.715 24.4 261.16 24.4 260.563 24.4C256.382 24.4 253.139 25.296 250.835 27.088C250.75 27.088 250.664 27.1307 250.579 27.216C250.579 27.216 250.536 27.216 250.451 27.216L250.963 26.192ZM258.899 35.024C258.899 34 259.368 33.4027 260.307 33.232L259.155 35.92C258.984 35.7493 258.899 35.4507 258.899 35.024ZM260.563 36.688C259.88 36.688 259.411 36.432 259.155 35.92L260.307 33.232H260.563C261.758 33.232 262.355 33.8293 262.355 35.024C262.355 36.1333 261.758 36.688 260.563 36.688ZM258.259 4.432C258.259 4.944 258.43 5.41333 258.771 5.84C259.112 6.18133 259.496 6.43733 259.923 6.60799L259.667 7.12C259.155 6.94933 258.686 6.65067 258.259 6.224C257.918 5.712 257.747 5.11466 257.747 4.432C257.747 3.664 258.003 3.024 258.515 2.51199C259.112 1.91466 259.795 1.616 260.563 1.616C261.331 1.616 261.971 1.91466 262.483 2.51199C263.08 3.024 263.379 3.664 263.379 4.432C263.379 5.79733 262.739 6.69333 261.459 7.12L261.331 6.60799C262.355 6.18133 262.867 5.456 262.867 4.432C262.867 3.74933 262.654 3.19466 262.227 2.768C261.8 2.34133 261.246 2.128 260.563 2.128C259.88 2.128 259.326 2.34133 258.899 2.768C258.472 3.19466 258.259 3.74933 258.259 4.432ZM261.459 7.12L261.331 6.60799C261.16 6.60799 261.032 6.65066 260.947 6.736C260.862 6.736 260.734 6.736 260.563 6.736C260.392 6.736 260.264 6.736 260.179 6.736C260.094 6.65066 260.008 6.60799 259.923 6.60799L259.667 7.12C259.838 7.12 259.966 7.16266 260.051 7.24799C260.222 7.24799 260.392 7.24799 260.563 7.24799C260.734 7.24799 260.862 7.24799 260.947 7.24799C261.118 7.16266 261.288 7.12 261.459 7.12ZM262.867 4.432C262.867 5.456 262.355 6.18133 261.331 6.60799L261.075 6.09599C261.928 5.84 262.355 5.28533 262.355 4.432C262.355 3.23733 261.758 2.64 260.563 2.64C259.454 2.64 258.899 3.23733 258.899 4.432C258.899 5.2 259.283 5.75466 260.051 6.09599L259.923 6.60799C259.496 6.43733 259.112 6.18133 258.771 5.84C258.43 5.41333 258.259 4.944 258.259 4.432C258.259 3.74933 258.472 3.19466 258.899 2.768C259.326 2.34133 259.88 2.128 260.563 2.128C261.246 2.128 261.8 2.34133 262.227 2.768C262.654 3.19466 262.867 3.74933 262.867 4.432ZM260.563 6.224C260.648 6.224 260.734 6.224 260.819 6.224C260.904 6.13866 260.99 6.09599 261.075 6.09599L261.331 6.60799C261.16 6.60799 261.032 6.65066 260.947 6.736C260.862 6.736 260.734 6.736 260.563 6.736C260.392 6.736 260.264 6.736 260.179 6.736C260.094 6.65066 260.008 6.60799 259.923 6.60799L260.051 6.09599C260.222 6.09599 260.307 6.13866 260.307 6.224C260.392 6.224 260.478 6.224 260.563 6.224ZM260.563 50.64C259.966 50.64 259.667 50.3413 259.667 49.744C259.667 49.1467 259.966 48.848 260.563 48.848C261.16 48.848 261.459 49.1467 261.459 49.744C261.459 50.3413 261.16 50.64 260.563 50.64ZM260.563 55.504C260.222 55.504 259.966 55.2907 259.795 54.864H261.459C261.288 55.2907 260.99 55.504 260.563 55.504ZM260.563 53.712C261.16 53.712 261.459 54.0107 261.459 54.608V54.864H259.795C259.795 54.864 259.752 54.7787 259.667 54.608C259.667 54.0107 259.966 53.712 260.563 53.712ZM260.563 58.576C261.16 58.576 261.459 58.8747 261.459 59.472C261.459 60.0693 261.16 60.368 260.563 60.368C259.966 60.368 259.667 60.0693 259.667 59.472C259.667 58.8747 259.966 58.576 260.563 58.576ZM254.675 29.648C255.614 29.648 256.382 29.9893 256.979 30.672C257.662 31.2693 258.003 32.0373 258.003 32.976H251.347C251.347 32.0373 251.646 31.2693 252.243 30.672C252.926 29.9893 253.736 29.648 254.675 29.648ZM263.891 32.592V30.544C264.488 29.9467 265.256 29.648 266.195 29.648C267.048 29.648 267.774 29.9467 268.371 30.544C268.968 31.056 269.31 31.7387 269.395 32.592H263.891ZM262.867 32.976C262.867 32.0373 263.208 31.2267 263.891 30.544V32.592H269.395C269.395 32.6773 269.395 32.7627 269.395 32.848C269.48 32.848 269.523 32.8907 269.523 32.976H262.867ZM258.387 37.456L257.747 39.12C257.406 38.4373 257.235 37.8827 257.235 37.456H258.387ZM263.891 37.712L263.763 37.456H263.891V37.712ZM260.563 40.784C259.198 40.784 258.259 40.2293 257.747 39.12L258.387 37.456H263.763L263.891 37.712C263.806 38.5653 263.464 39.2907 262.867 39.888C262.27 40.4853 261.502 40.784 260.563 40.784ZM256.211 87.504C256.894 87.0773 257.064 86.4373 256.723 85.584C257.406 86.1813 257.875 86.864 258.131 87.632L248.147 91.216C247.976 90.704 248.019 90.1493 248.275 89.552C248.616 89.04 249.043 88.4853 249.555 87.888C250.067 87.2907 250.622 86.7787 251.219 86.352C251.816 85.9253 252.371 85.584 252.883 85.328C253.054 85.6693 253.224 85.968 253.395 86.224C253.651 86.5653 253.864 86.864 254.035 87.12C254.206 87.5467 254.632 87.76 255.315 87.76C255.742 87.76 256.04 87.6747 256.211 87.504ZM253.395 85.072C254.59 84.6453 255.699 84.816 256.723 85.584C257.064 86.4373 256.894 87.0773 256.211 87.504C256.04 87.6747 255.742 87.76 255.315 87.76C254.632 87.76 254.206 87.5467 254.035 87.12C253.864 86.864 253.651 86.5653 253.395 86.224C253.224 85.968 253.054 85.6693 252.883 85.328C253.054 85.1573 253.224 85.072 253.395 85.072ZM264.915 85.584C264.574 86.352 264.744 86.992 265.427 87.504C265.512 87.504 265.555 87.5467 265.555 87.632L264.147 87.12C264.232 86.7787 264.318 86.48 264.403 86.224C264.574 85.968 264.744 85.7547 264.915 85.584ZM267.731 87.12C267.987 86.6933 268.243 86.2667 268.499 85.84C268.755 85.4987 268.968 85.1147 269.139 84.688C269.651 84.8587 270.206 85.1573 270.803 85.584C271.486 86.096 272.083 86.6507 272.595 87.248C273.192 87.8453 273.619 88.4427 273.875 89.04C274.216 89.6373 274.344 90.192 274.259 90.704L266.195 87.76H266.451C266.963 87.76 267.39 87.5467 267.731 87.12ZM264.915 85.584C266.11 84.3893 267.432 84.048 268.883 84.56C268.968 84.56 269.054 84.6027 269.139 84.688C268.968 85.1147 268.755 85.4987 268.499 85.84C268.243 86.2667 267.987 86.6933 267.731 87.12C267.39 87.5467 266.963 87.76 266.451 87.76H266.195L265.555 87.632C265.555 87.5467 265.512 87.504 265.427 87.504C264.744 86.992 264.574 86.352 264.915 85.584ZM342.996 57.04L336.084 78.8C335.657 78.6293 335.188 78.416 334.676 78.16C334.164 77.904 333.695 77.6053 333.268 77.264L340.052 56.016L342.996 57.04ZM362.58 61.776L355.924 82.768C355.327 82.768 354.772 82.7253 354.26 82.64C353.748 82.64 353.193 82.64 352.596 82.64L358.996 62.544C359.593 62.3733 360.148 62.2453 360.66 62.16C361.257 61.9893 361.812 61.8187 362.324 61.648L361.94 62.032L362.58 61.776ZM346.068 59.088C346.495 59.5147 346.921 59.8987 347.348 60.24C347.86 60.496 348.329 60.752 348.756 61.008L342.484 81.104C342.057 81.0187 341.673 80.9333 341.332 80.848C341.076 80.7627 340.777 80.6773 340.436 80.592C340.265 80.5067 340.095 80.464 339.924 80.464C339.753 80.3787 339.583 80.2933 339.412 80.208L346.068 59.088ZM328.276 59.216L325.076 69.456C324.649 68.8587 324.265 68.304 323.924 67.792C323.583 67.1947 323.241 66.5547 322.9 65.872L325.972 55.888L326.228 63.824L328.276 59.216ZM336.212 54.736L336.724 54.992L335.956 57.296L336.212 54.736ZM341.46 39.12C338.985 40.8267 336.553 41.808 334.164 42.064C331.775 42.2347 329.556 42.064 327.508 41.552C325.46 41.04 323.668 40.3147 322.132 39.376C320.681 38.4373 319.572 37.6693 318.804 37.072V1.104H341.46V39.12ZM333.908 63.824L330.324 75.216C330.068 74.96 329.812 74.7467 329.556 74.576C329.3 74.32 329.044 74.064 328.788 73.808C328.532 73.6373 328.148 73.296 327.636 72.784L331.988 59.088L333.908 63.824ZM324.18 50.256L320.852 60.752C320.084 58.6187 319.572 56.2293 319.316 53.584L324.18 50.256ZM352.084 62.288C353.108 62.544 354.175 62.672 355.284 62.672L349.012 82.384C348.5 82.2987 347.988 82.2133 347.476 82.128C346.964 82.128 346.409 82.0427 345.812 81.872L352.084 62.288ZM386.004 65.872L387.668 68.304C387.241 68.9867 386.772 69.6693 386.26 70.352C385.833 71.0347 385.321 71.6747 384.724 72.272L385.876 66.256L386.004 65.872ZM381.908 67.408L378.708 77.264C378.111 77.6907 377.471 78.0747 376.788 78.416C376.105 78.672 375.423 78.9707 374.74 79.312L380.372 61.776L381.908 67.408ZM374.868 67.28L370.644 80.72C370.047 80.8907 369.449 81.0613 368.852 81.232C368.255 81.3173 367.615 81.4453 366.932 81.616L371.028 68.816L371.54 68.304L370.132 72.528L374.868 67.28ZM393.428 47.824C391.295 50.2133 389.033 51.8347 386.644 52.688C384.255 53.456 381.993 53.7973 379.86 53.712C377.727 53.6267 375.807 53.328 374.1 52.816C372.393 52.2187 371.156 51.7067 370.388 51.28C370.644 49.744 370.772 48.0373 370.772 46.16V1.104H393.428V45.52V47.824ZM369.364 62.544L363.092 82.256L359.636 82.64L365.78 63.568L369.364 62.544ZM402.388 62.8L407.124 65.872L391.636 64.592L391.252 61.904L402.388 62.8ZM394.196 55.12L402.132 50L405.716 50.256L396.244 56.4L394.196 55.12ZM384.084 73.04C384.169 72.8693 384.383 72.6133 384.724 72.272L384.084 75.728L383.444 73.552C383.529 73.552 383.572 73.552 383.572 73.552C383.572 73.4667 383.615 73.424 383.7 73.424L384.084 73.04ZM368.596 55.376L366.676 57.168L359.764 54.48L365.012 53.968L368.596 55.376ZM387.668 68.304L392.916 76.112L392.404 72.784L388.564 67.024C388.393 67.1947 388.223 67.408 388.052 67.664C387.967 67.92 387.839 68.1333 387.668 68.304ZM376.148 63.312L374.868 67.28L370.132 72.528L371.54 68.304L376.148 63.312ZM370.26 59.6L369.364 62.544L365.78 63.568L366.676 60.624L370.26 59.6ZM383.956 72.528L384.084 73.04L383.7 73.424L383.956 72.528ZM388.564 67.024C388.393 67.1947 388.223 67.408 388.052 67.664C387.967 67.92 387.839 68.1333 387.668 68.304L386.004 65.872L386.644 64.08L388.564 67.024ZM385.876 66.256L384.724 72.272C384.383 72.6133 384.169 72.8693 384.084 73.04L384.468 70.608L385.876 66.256ZM380.756 60.496L382.292 66.256L381.908 67.408L380.372 61.776L380.756 60.496ZM366.676 60.624L365.78 63.568L361.94 64.592L365.524 61.008L366.676 60.624ZM373.972 58.576L372.948 61.52L369.364 62.544L370.26 59.6L373.972 58.576ZM380.756 60.496L380.372 61.776L380.244 61.52L374.868 67.28L376.148 63.312L380.244 58.96L380.756 60.496ZM386.004 63.184L386.644 64.08L386.004 65.872V65.744L385.876 66.256L384.468 70.608L386.004 63.184ZM383.7 73.424C383.615 73.424 383.572 73.4667 383.572 73.552C383.572 73.552 383.529 73.552 383.444 73.552L381.908 67.408L382.292 66.256L383.956 72.528L383.7 73.424ZM343.508 55.632C343.167 55.2053 342.953 54.736 342.868 54.224L347.092 55.632L351.06 59.6L344.66 57.552C344.404 57.2107 344.191 56.912 344.02 56.656C343.849 56.4 343.679 56.0587 343.508 55.632ZM318.804 47.312V47.44L307.284 47.824L311.636 45.264L318.804 44.88V46.032V47.312ZM319.06 51.536C319.06 52.048 319.145 52.7307 319.316 53.584L313.428 57.424L315.732 53.712L319.06 51.536ZM315.86 40.4L313.684 41.808L307.54 37.584L312.788 38.224L315.86 40.4ZM341.46 45.904L349.78 43.088L353.236 44.112L342.484 47.824L341.46 46.8V46.16V45.904ZM342.868 54.224C342.953 54.736 343.167 55.2053 343.508 55.632L342.996 57.04L340.052 56.016L340.82 53.584L342.868 54.224ZM329.556 55.376L328.276 59.216L326.228 63.824L325.972 55.888L326.612 53.968L326.868 61.264L329.556 55.376ZM334.548 61.648L333.908 63.824L331.988 59.088L332.756 56.784L334.548 61.648ZM337.492 52.432L336.724 54.992L336.212 54.736L336.468 52.176L337.492 52.432ZM324.18 50.256L319.316 53.584C319.145 52.7307 319.06 52.048 319.06 51.536L324.948 47.568L324.18 50.256ZM341.076 46.032L341.46 45.904V46.16L341.076 46.032ZM320.34 44.88L318.804 47.312V46.032V44.88H320.34ZM326.612 53.968L325.972 55.888L325.844 49.104L324.18 50.256L324.948 47.568L326.484 46.672L326.612 53.968ZM332.756 56.784L331.988 59.088L330.452 54.608L328.276 59.216L329.556 55.376L331.092 52.176L332.756 56.784ZM334.548 61.648L335.06 62.928L334.804 66.256L333.908 63.824L334.548 61.648ZM340.82 53.584L340.052 56.016L336.724 54.992L337.492 52.432L340.82 53.584ZM341.076 46.032L341.46 46.16V46.8L340.82 46.16L341.076 46.032ZM343.508 55.632C343.679 56.0587 343.849 56.4 344.02 56.656C344.191 56.912 344.404 57.2107 344.66 57.552L342.996 57.04L343.508 55.632ZM383.316 79.824L380.884 87.632L377.556 86.608L379.348 80.72L382.932 79.696L383.316 79.824ZM374.484 85.712L368.34 83.792L375.764 81.744L374.484 85.712ZM398.804 86.48C398.804 86.48 398.847 86.224 398.932 85.712C399.103 85.2 399.231 84.6453 399.316 84.048C399.487 83.536 399.615 83.024 399.7 82.512C399.871 82 399.956 81.744 399.956 81.744L402.644 85.968L398.804 86.48ZM387.668 88.144L384.596 88.656L383.956 88.528L386.26 81.104L388.82 82.128L389.716 81.872L387.668 88.144ZM397.524 79.44L395.092 86.992L391.252 87.632L393.428 80.72L397.524 79.44ZM395.22 86.992C395.135 86.992 395.092 87.0347 395.092 87.12V86.992H395.22ZM467.726 27.344L450.702 16.464L451.726 14.8L468.878 25.68L467.726 27.344ZM486.03 82H476.942L454.158 50L456.078 51.28L458.766 46.8L446.222 38.864L443.15 34.64L459.662 45.136L460.43 43.856L486.03 82ZM475.662 15.568L458.254 4.432L459.918 1.87199H484.878L475.662 15.568ZM426.766 49.36L443.662 60.112L442.638 61.776L425.614 51.024L426.766 49.36ZM418.83 61.136L435.982 72.144L434.958 73.808L417.678 62.8L418.83 61.136ZM471.694 21.456L454.414 10.448L455.566 8.784L472.846 19.792L471.694 21.456ZM414.734 67.024L432.142 78.16L431.118 79.824L413.71 68.688L414.734 67.024ZM410.126 73.936L422.67 82H404.75L410.126 73.936ZM453.902 55.12L472.974 82H460.43L448.654 63.44L448.91 63.568L451.47 59.088L429.582 45.136L430.734 43.472L452.494 57.424L453.902 55.12ZM431.118 37.712L430.478 38.608L405.902 1.87199H431.374L443.022 20.304L440.334 24.272L460.942 37.456L459.79 39.12L439.182 25.936L438.158 27.472L428.686 14.288C429.027 13.8613 429.283 13.392 429.454 12.88C429.71 12.2827 429.838 11.6853 429.838 11.088C429.838 9.63733 429.326 8.44266 428.302 7.504C427.363 6.48 426.169 5.96799 424.718 5.96799C423.267 5.96799 422.073 6.48 421.134 7.504C420.195 8.44266 419.726 9.63733 419.726 11.088C419.726 12.5387 420.195 13.776 421.134 14.8C422.073 15.7387 423.267 16.208 424.718 16.208C425.059 16.208 425.486 16.1227 425.998 15.952L439.054 34.256L435.214 31.824L432.27 36.048L446.99 45.52L450.062 49.744L431.118 37.712ZM463.758 33.232L446.862 22.352L447.886 20.816L464.91 31.568L463.758 33.232ZM422.798 55.248L439.822 66.128L438.798 67.792L421.646 56.912L422.798 55.248ZM456.846 5.2C457.102 5.456 457.23 5.75466 457.23 6.09599L456.718 6.864C456.547 7.03466 456.206 7.03466 455.694 6.864C455.182 6.52266 455.097 6.05333 455.438 5.45599C455.779 4.944 456.249 4.85866 456.846 5.2ZM457.102 6.60799C456.931 6.77866 456.803 6.864 456.718 6.864L457.23 6.09599C457.23 6.26666 457.187 6.43733 457.102 6.60799ZM473.358 16.976C473.187 17.1467 472.974 17.2747 472.718 17.36C472.462 17.4453 472.249 17.4027 472.078 17.232C471.481 16.8907 471.353 16.464 471.694 15.952C472.121 15.44 472.59 15.312 473.102 15.568C473.699 15.9947 473.785 16.464 473.358 16.976ZM452.878 11.344C453.134 11.6 453.262 11.8987 453.262 12.24L452.75 13.136C452.409 13.3067 452.067 13.264 451.726 13.008C451.214 12.6667 451.129 12.24 451.47 11.728C451.726 11.1307 452.195 11.0027 452.878 11.344ZM452.75 13.136L453.262 12.24C453.262 12.496 453.219 12.6667 453.134 12.752L452.75 13.136ZM469.39 23.12C469.049 23.7173 468.622 23.8453 468.11 23.504C467.513 23.0773 467.427 22.608 467.854 22.096C468.025 21.9253 468.238 21.7973 468.494 21.712C468.75 21.6267 468.963 21.6693 469.134 21.84C469.817 22.1813 469.902 22.608 469.39 23.12ZM448.91 17.616C449.337 17.7867 449.465 18.0853 449.294 18.512L448.91 19.28C448.483 19.4507 448.142 19.4507 447.886 19.28C447.289 19.024 447.161 18.5547 447.502 17.872C447.843 17.36 448.313 17.2747 448.91 17.616ZM449.166 18.896C449.081 18.9813 449.038 19.0667 449.038 19.152C449.038 19.152 448.995 19.1947 448.91 19.28L449.294 18.512C449.294 18.6827 449.251 18.8107 449.166 18.896ZM465.55 29.392C465.123 29.8187 464.654 29.904 464.142 29.648C463.459 29.3067 463.374 28.88 463.886 28.368C464.227 27.7707 464.654 27.6427 465.166 27.984C465.763 28.24 465.891 28.7093 465.55 29.392ZM443.918 25.424C443.321 25.0827 443.193 24.656 443.534 24.144C443.961 23.632 444.43 23.504 444.942 23.76C445.454 24.272 445.539 24.7413 445.198 25.168C444.857 25.68 444.43 25.7653 443.918 25.424ZM460.174 35.792C459.662 35.4507 459.577 35.024 459.918 34.512C460.259 33.8293 460.686 33.744 461.198 34.256C461.795 34.5973 461.923 35.024 461.582 35.536C461.155 36.1333 460.686 36.2187 460.174 35.792ZM441.23 31.312C441.23 31.3973 441.187 31.4827 441.102 31.568L439.95 30.032C440.206 29.776 440.547 29.776 440.974 30.032C441.657 30.3733 441.742 30.8 441.23 31.312ZM439.566 30.288C439.737 30.1173 439.865 30.032 439.95 30.032L441.102 31.568C440.761 31.824 440.377 31.8667 439.95 31.696C439.438 31.2693 439.31 30.8 439.566 30.288ZM456.206 42.064C455.694 41.7227 455.609 41.2533 455.95 40.656C456.291 40.144 456.761 40.0587 457.358 40.4C457.87 40.7413 457.955 41.2107 457.614 41.808C457.273 42.32 456.803 42.4053 456.206 42.064ZM437.518 35.408C438.115 35.7493 438.243 36.176 437.902 36.688C437.475 37.2 437.006 37.328 436.494 37.072C435.897 36.6453 435.811 36.176 436.238 35.664C436.579 34.9813 437.006 34.896 437.518 35.408ZM453.902 45.776C454.414 46.1173 454.499 46.5867 454.158 47.184C453.817 47.696 453.39 47.7813 452.878 47.44C452.281 47.184 452.153 46.7147 452.494 46.032C452.835 45.52 453.305 45.4347 453.902 45.776ZM433.55 41.552C434.147 41.808 434.275 42.2773 433.934 42.96C433.507 43.3867 433.038 43.472 432.526 43.216C432.014 42.8747 431.929 42.4053 432.27 41.808C432.611 41.296 433.038 41.2107 433.55 41.552ZM449.934 51.92C450.446 52.432 450.531 52.9013 450.19 53.328C450.019 53.4987 449.806 53.6267 449.55 53.712C449.294 53.7973 449.081 53.7547 448.91 53.584C448.313 53.2427 448.185 52.816 448.526 52.304C448.953 51.792 449.422 51.664 449.934 51.92ZM429.966 47.312C430.393 47.7387 430.478 48.208 430.222 48.72C429.881 49.232 429.411 49.3173 428.814 48.976C428.302 48.6347 428.217 48.208 428.558 47.696C428.814 47.0987 429.283 46.9707 429.966 47.312ZM445.198 59.344C444.857 59.2587 444.686 58.96 444.686 58.448L445.198 57.808L446.222 59.472C445.795 59.6427 445.454 59.6 445.198 59.344ZM445.198 57.808L444.686 58.448C444.771 58.3627 444.814 58.32 444.814 58.32C444.814 58.2347 444.857 58.1493 444.942 58.064C445.283 57.3813 445.71 57.296 446.222 57.808C446.905 58.1493 446.99 58.576 446.478 59.088C446.478 59.1733 446.393 59.3013 446.222 59.472L445.198 57.808ZM424.59 53.84C424.931 53.2427 425.401 53.1573 425.998 53.584C426.51 53.9253 426.595 54.352 426.254 54.864C425.913 55.4613 425.486 55.5893 424.974 55.248C424.462 54.8213 424.334 54.352 424.59 53.84ZM441.23 65.616C440.803 65.36 440.675 65.0187 440.846 64.592L441.23 63.952C441.571 63.6107 441.913 63.6107 442.254 63.952C442.851 64.208 442.979 64.6773 442.638 65.36C442.211 65.7867 441.742 65.872 441.23 65.616ZM440.974 64.208C440.974 64.208 441.059 64.1227 441.23 63.952L440.846 64.592C440.846 64.4213 440.889 64.2933 440.974 64.208ZM420.878 59.6C421.305 59.1733 421.774 59.088 422.286 59.344C422.457 59.5147 422.585 59.728 422.67 59.984C422.755 60.24 422.713 60.4533 422.542 60.624C422.201 61.2213 421.774 61.3493 421.262 61.008C420.75 60.5813 420.622 60.112 420.878 59.6ZM437.518 71.376C437.177 71.0347 437.049 70.6933 437.134 70.352L437.518 69.712C437.945 69.456 438.286 69.456 438.542 69.712C439.139 69.968 439.267 70.4373 438.926 71.12C438.499 71.5467 438.03 71.632 437.518 71.376ZM437.518 69.712L437.134 70.352C437.134 70.1813 437.177 70.0533 437.262 69.968L437.518 69.712ZM416.91 65.872C417.337 65.36 417.806 65.232 418.318 65.488C418.915 65.9147 419.001 66.384 418.574 66.896C418.233 67.408 417.806 67.4933 417.294 67.152C416.697 66.8107 416.569 66.384 416.91 65.872ZM433.55 77.52C433.123 77.3493 432.995 77.008 433.166 76.496L433.55 75.984C433.891 75.6427 434.275 75.6427 434.702 75.984C435.214 76.3253 435.299 76.752 434.958 77.264C434.617 77.8613 434.147 77.9467 433.55 77.52ZM433.294 76.24C433.294 76.0693 433.379 75.984 433.55 75.984L433.166 76.496C433.166 76.496 433.209 76.4107 433.294 76.24ZM413.07 72.016C413.411 71.3333 413.838 71.248 414.35 71.76C414.947 72.1013 415.075 72.528 414.734 73.04C414.307 73.552 413.838 73.68 413.326 73.424C412.729 72.9973 412.643 72.528 413.07 72.016ZM429.326 82.384C429.667 81.872 430.137 81.7867 430.734 82.128C431.246 82.4693 431.331 82.9387 430.99 83.536C430.649 84.048 430.179 84.1333 429.582 83.792C429.07 83.4507 428.985 82.9813 429.326 82.384ZM552.388 82H530.5V1.87199H551.236L584.26 44.24V1.87199H606.148V82H586.692L552.388 38.096V82ZM532.164 15.312C532.164 17.0187 532.463 18.5973 533.06 20.048C533.743 21.4987 534.596 22.7787 535.62 23.888C536.729 24.912 538.009 25.7653 539.46 26.448C540.911 27.0453 542.447 27.344 544.068 27.344C545.689 27.344 547.225 27.0453 548.676 26.448C550.212 25.7653 551.492 24.912 552.516 23.888C553.625 22.7787 554.479 21.4987 555.076 20.048C555.759 18.5973 556.1 17.0187 556.1 15.312C556.1 13.6907 555.759 12.1547 555.076 10.704C554.479 9.16799 553.625 7.888 552.516 6.864C551.492 5.75466 550.212 4.90133 548.676 4.30399C547.225 3.62133 545.689 3.28 544.068 3.28C542.447 3.28 540.911 3.62133 539.46 4.30399C538.009 4.90133 536.729 5.75466 535.62 6.864C534.596 7.888 533.743 9.16799 533.06 10.704C532.463 12.1547 532.164 13.6907 532.164 15.312ZM547.14 75.6L541.124 71.888V77.136L547.14 80.848V75.6ZM547.14 64.848L541.124 61.136V66.384L547.14 70.096V64.848ZM547.14 54.224L541.124 50.512V55.76L547.14 59.472V54.224ZM547.14 43.472L541.124 39.76V45.136L547.14 48.848V43.472ZM547.14 32.848L541.124 29.136V34.384L547.14 38.096V32.848ZM548.036 23.248L540.612 13.264V23.248H537.156V7.632H540.356L547.652 17.232V7.632H550.98V23.248H548.036ZM694.512 25.808C696.645 30.672 697.712 36.048 697.712 41.936V42.192C697.712 47.9093 696.645 53.2853 694.512 58.32C694.085 59.1733 693.659 60.0267 693.232 60.88C692.891 61.648 692.464 62.416 691.952 63.184C692.037 63.6107 692.08 63.9947 692.08 64.336C692.165 64.6773 692.208 65.0613 692.208 65.488C692.208 68.048 691.739 70.4373 690.8 72.656C689.861 74.8747 688.539 76.8373 686.832 78.544C685.211 80.1653 683.291 81.4453 681.072 82.384C678.853 83.3227 676.464 83.792 673.904 83.792C671.173 83.792 668.741 83.28 666.608 82.256C662.768 83.28 658.715 83.792 654.448 83.792C650.864 83.792 647.408 83.408 644.08 82.64C642.117 83.408 640.069 83.792 637.936 83.792C635.547 83.792 633.285 83.3653 631.152 82.512C629.019 81.6587 627.141 80.5067 625.52 79.056C623.899 77.52 622.576 75.728 621.552 73.68C620.528 71.632 619.931 69.456 619.76 67.152C618.736 65.872 617.797 64.5067 616.944 63.056C616.091 61.6053 615.323 60.0693 614.64 58.448C612.507 53.584 611.44 48.208 611.44 42.32V42.192C611.44 36.3893 612.507 30.9707 614.64 25.936C616.773 20.9867 619.845 16.5493 623.856 12.624C627.696 8.95466 632.261 6.01066 637.552 3.792C642.928 1.57333 648.645 0.463997 654.704 0.463997C660.763 0.463997 666.48 1.57333 671.856 3.792C677.232 6.01066 681.755 8.95466 685.424 12.624C689.349 16.464 692.379 20.8587 694.512 25.808ZM639.6 26.832C639.429 27.0027 639.301 27.1733 639.216 27.344C639.131 27.5147 639.003 27.6853 638.832 27.856L674.672 37.84C674.416 36.4747 674.032 35.152 673.52 33.872C672.581 31.2267 671.173 28.9653 669.296 27.088C668.357 26.064 667.333 25.168 666.224 24.4C665.2 23.632 664.048 22.9067 662.768 22.224C660.293 21.1147 657.52 20.56 654.448 20.56C651.205 20.56 648.432 21.1147 646.128 22.224C644.848 22.8213 643.653 23.504 642.544 24.272C641.52 25.04 640.539 25.8933 639.6 26.832ZM643.056 30.544C642.629 32.592 642.672 34.5973 643.184 36.56C643.696 38.5227 644.549 40.3147 645.744 41.936L654.192 33.616L643.056 30.544ZM646.896 43.216C647.664 43.984 648.56 44.6667 649.584 45.264C650.608 45.8613 651.717 46.3307 652.912 46.672C654.021 47.0133 655.259 47.184 656.624 47.184C657.136 47.184 657.605 47.184 658.032 47.184C658.544 47.184 659.013 47.0987 659.44 46.928L656.24 34.256H655.984L646.896 43.216ZM661.104 46.544C665.285 45.0933 668.187 42.2773 669.808 38.096L658.032 34.768L661.104 46.544ZM641.136 29.008C641.221 28.8373 641.264 28.6667 641.264 28.496L639.472 27.984C639.387 28.1547 639.344 28.368 639.344 28.624C639.259 28.7093 639.216 28.9227 639.216 29.264C638.96 30.544 638.832 31.9093 638.832 33.36C638.832 37.2853 639.984 40.8693 642.288 44.112C644.677 47.2693 647.877 49.4027 651.888 50.512C652.656 50.768 653.424 50.9387 654.192 51.024C655.045 51.1093 655.856 51.152 656.624 51.152C660.379 51.152 663.792 50.0427 666.864 47.824C670.021 45.52 672.24 42.5333 673.52 38.864C673.605 38.6933 673.648 38.608 673.648 38.608C673.648 38.5227 673.691 38.3947 673.776 38.224C673.776 37.968 673.819 37.7973 673.904 37.712L671.984 37.2C671.984 37.3707 671.941 37.4987 671.856 37.584V37.712C671.856 37.8827 671.813 38.0107 671.728 38.096C671.728 38.096 671.728 38.1813 671.728 38.352C670.789 40.7413 669.424 42.832 667.632 44.624C665.84 46.3307 663.835 47.6107 661.616 48.464H661.488C659.952 48.976 658.331 49.232 656.624 49.232C655.088 49.232 653.68 49.0613 652.4 48.72C648.816 47.696 645.957 45.776 643.824 42.96C641.776 40.0587 640.752 36.8587 640.752 33.36C640.752 32.7627 640.752 32.1653 640.752 31.568C640.752 30.9707 640.837 30.3733 641.008 29.776C641.008 29.6053 641.008 29.4773 641.008 29.392C641.093 29.3067 641.136 29.2213 641.136 29.136V29.008ZM637.936 47.312C638.448 47.312 638.96 47.312 639.472 47.312C639.984 47.312 640.453 47.3973 640.88 47.568C639.941 46.288 639.088 45.0507 638.32 43.856C637.381 42.1493 636.699 40.4 636.272 38.608C635.845 36.816 635.675 34.9813 635.76 33.104C635.589 33.4453 635.504 33.616 635.504 33.616C634.565 36.432 634.096 39.2053 634.096 41.936V42.192C634.096 43.8133 634.309 45.6053 634.736 47.568C635.248 47.3973 635.76 47.312 636.272 47.312C636.784 47.312 637.339 47.312 637.936 47.312ZM655.856 62.544C656.453 59.3013 657.776 56.4 659.824 53.84C658.544 54.096 657.264 54.224 655.984 54.224C654.619 54.224 653.253 54.096 651.888 53.84C654.021 56.4 655.344 59.3013 655.856 62.544ZM675.056 42.192V41.04C674.117 43.5147 672.795 45.648 671.088 47.44C671.515 47.3547 671.984 47.312 672.496 47.312C673.008 47.312 673.477 47.312 673.904 47.312H674.544C674.885 45.8613 675.056 44.1973 675.056 42.32V42.192ZM735.092 32.72V32.592H735.22L735.092 32.72ZM738.676 48.464C739.188 49.0613 739.657 49.6587 740.084 50.256H732.148L731.636 48.976C732.489 48.5493 733.044 47.952 733.3 47.184C733.471 47.184 733.641 47.184 733.812 47.184C734.068 47.0987 734.281 47.056 734.452 47.056C735.903 47.056 737.311 47.5253 738.676 48.464ZM714.74 67.536C713.801 69.9253 713.332 72.6133 713.332 75.6C713.332 78.0747 713.631 80.208 714.228 82H704.5V54.48C705.353 54.736 706.292 54.864 707.316 54.864C708.425 54.864 709.449 54.6933 710.388 54.352C712.18 53.84 713.631 52.7733 714.74 51.152L713.332 54.352C712.393 56.0587 711.924 57.8933 711.924 59.856C711.924 62.8427 712.863 65.4027 714.74 67.536ZM729.716 69.84C730.228 71.5467 730.484 73.4667 730.484 75.6C730.484 77.8187 730.143 79.952 729.46 82H717.556C716.873 79.952 716.532 77.8187 716.532 75.6C716.532 73.4667 716.788 71.504 717.3 69.712C719.263 70.992 721.353 71.632 723.572 71.632C725.791 71.632 727.839 71.0347 729.716 69.84ZM733.556 75.6C733.556 72.6133 733.129 70.0107 732.276 67.792C733.556 66.3413 734.409 64.7627 734.836 63.056H769.78V82H732.788C733.3 80.1227 733.556 77.9893 733.556 75.6ZM734.452 36.944C735.135 37.0293 735.817 36.944 736.5 36.688C737.183 36.432 737.737 35.9627 738.164 35.28C738.591 34.5973 738.932 33.7013 739.188 32.592H765.172V50.256H743.54C742.857 48.464 741.876 47.056 740.596 46.032C738.889 44.6667 736.841 43.984 734.452 43.984C733.769 43.984 733.257 44.0267 732.916 44.112C732.233 43.344 731.423 42.96 730.484 42.96H729.972C732.191 41.424 733.684 39.4187 734.452 36.944ZM709.364 51.408C708.681 51.664 707.999 51.792 707.316 51.792C706.463 51.792 705.524 51.5787 704.5 51.152V1.35999H769.14V20.432H730.228L724.084 7.12C725.364 6.69333 726.004 5.79733 726.004 4.432C726.004 3.664 725.705 3.024 725.108 2.51199C724.596 1.91466 723.956 1.616 723.188 1.616C722.42 1.616 721.737 1.91466 721.14 2.51199C720.628 3.024 720.372 3.664 720.372 4.432C720.372 5.11466 720.543 5.712 720.884 6.224C721.311 6.65067 721.78 6.94933 722.292 7.12L715.252 22.608C714.057 23.0347 712.82 23.6747 711.54 24.528C711.199 24.784 710.985 25.1253 710.9 25.552C710.9 25.9787 711.028 26.3627 711.284 26.704C711.711 27.3013 712.223 27.5147 712.82 27.344C711.967 28.88 711.455 30.5867 711.284 32.464L708.084 27.216C707.657 27.472 707.359 27.984 707.188 28.752C707.103 29.4347 707.06 30.2027 707.06 31.056C707.145 31.824 707.316 32.6347 707.572 33.488C707.828 34.256 708.084 34.8533 708.34 35.28C709.193 36.56 710.388 37.1147 711.924 36.944C712.863 39.5893 714.399 41.5947 716.532 42.96H715.892C715.039 42.96 714.313 43.2587 713.716 43.856C713.119 44.4533 712.82 45.1787 712.82 46.032C712.82 46.7147 712.991 47.2693 713.332 47.696C712.905 48.6347 712.351 49.4453 711.668 50.128C711.071 50.7253 710.303 51.152 709.364 51.408ZM694.516 51.664C693.919 51.4933 693.62 51.0667 693.62 50.384C693.705 50.128 693.876 49.9147 694.132 49.744C694.303 49.488 694.559 49.4027 694.9 49.488L697.204 49.744L700.02 51.664C700.105 51.7493 700.191 51.792 700.276 51.792C700.447 52.1333 700.532 52.304 700.532 52.304H700.276L694.516 51.664ZM699.508 50.128L697.204 49.744L695.284 48.464C694.687 48.0373 694.559 47.5253 694.9 46.928C695.327 46.3307 695.839 46.2453 696.436 46.672L698.356 47.952L699.508 50.128ZM700.276 51.792C700.191 51.792 700.105 51.7493 700.02 51.664L697.204 49.744L699.508 50.128L700.02 51.024C700.02 51.024 700.105 51.1093 700.276 51.28C700.276 51.28 700.276 51.4507 700.276 51.792ZM700.404 49.36L698.356 47.952L697.332 45.904C696.905 45.3067 697.033 44.8373 697.716 44.496C698.399 44.1547 698.868 44.2827 699.124 44.88L700.276 46.928L700.404 49.36ZM699.508 50.128L698.356 47.952L700.404 49.36V50.256L699.508 50.128ZM700.404 50.64C700.319 50.7253 700.276 50.9387 700.276 51.28C700.105 51.1093 700.02 51.024 700.02 51.024L699.508 50.128L700.404 50.256V50.384V50.64ZM702.58 50C702.239 49.8293 701.983 49.744 701.812 49.744L700.276 46.928V44.624C700.276 43.856 700.617 43.472 701.3 43.472C701.983 43.472 702.324 43.8133 702.324 44.496L702.58 50ZM700.404 49.36L700.276 46.928L701.812 49.744C701.641 49.744 701.556 49.7867 701.556 49.872C701.471 49.872 701.343 49.872 701.172 49.872L700.404 49.36ZM700.532 50.256H700.404V49.36L701.172 49.872C701.087 49.9573 701.001 50.0427 700.916 50.128C700.831 50.128 700.745 50.1707 700.66 50.256H700.532ZM700.404 50.384V50.256H700.532H700.66L700.532 50.384C700.532 50.4693 700.532 50.512 700.532 50.512C700.447 50.512 700.404 50.5547 700.404 50.64V50.384ZM743.796 56.016L744.18 55.248L747.508 59.6C747.935 60.1973 747.849 60.7093 747.252 61.136C747.081 61.3067 746.825 61.392 746.484 61.392C746.228 61.3067 746.015 61.136 745.844 60.88L744.308 58.96L743.796 56.016ZM742.9 57.168L744.308 58.96L744.82 61.392C744.82 61.648 744.735 61.904 744.564 62.16C744.393 62.416 744.18 62.544 743.924 62.544C743.241 62.7147 742.815 62.4587 742.644 61.776L742.26 59.344L742.9 57.168ZM743.156 56.4C743.327 56.4 743.412 56.3573 743.412 56.272C743.497 56.1867 743.625 56.1013 743.796 56.016L744.308 58.96L742.9 57.168L743.156 56.4ZM741.748 57.04L742.26 59.344L741.492 61.648C741.321 62.3307 740.895 62.5867 740.212 62.416C739.529 62.2453 739.273 61.8187 739.444 61.136L740.212 58.832L741.748 57.04ZM742.516 56.528C742.772 56.528 742.985 56.4853 743.156 56.4L742.9 57.168L742.388 56.528L742.9 57.168L742.26 59.344L741.748 57.04L742.388 56.528H742.516ZM740.98 54.864C740.98 55.2053 741.023 55.4187 741.108 55.504L740.212 58.832L738.548 60.496C738.036 61.1787 737.524 61.1787 737.012 60.496C736.5 60.0693 736.5 59.6 737.012 59.088L740.98 54.864ZM741.748 57.04L740.212 58.832L741.108 55.504C741.279 55.8453 741.449 56.1013 741.62 56.272L741.748 57.04ZM741.62 56.272C741.961 56.4427 742.217 56.528 742.388 56.528L741.748 57.04L741.62 56.272ZM716.66 43.088C716.916 43.2587 717.129 43.4293 717.3 43.6C717.556 43.6853 717.812 43.7707 718.068 43.856L717.3 45.648C716.788 44.7947 716.575 43.9413 716.66 43.088ZM719.092 46.032C719.092 45.264 718.793 44.5813 718.196 43.984C719.732 44.6667 721.268 45.008 722.804 45.008C722.463 45.6907 721.908 46.2027 721.14 46.544C720.457 46.8853 719.732 46.928 718.964 46.672C719.049 46.5867 719.092 46.3733 719.092 46.032ZM718.196 43.984C718.793 44.5813 719.092 45.264 719.092 46.032C719.092 46.3733 719.049 46.5867 718.964 46.672C718.793 46.672 718.665 46.6293 718.58 46.544C718.239 46.4587 717.812 46.16 717.3 45.648L718.068 43.856L718.196 43.984ZM729.204 43.728L729.076 43.472H729.204V43.728ZM728.18 43.984C727.583 44.5813 727.284 45.264 727.284 46.032C727.284 46.1173 727.284 46.2027 727.284 46.288C727.369 46.3733 727.412 46.4587 727.412 46.544H727.284C726.431 46.9707 725.62 47.0133 724.852 46.672C724.084 46.3307 723.487 45.776 723.06 45.008L723.188 45.136C724.127 45.136 724.98 45.0507 725.748 44.88C726.601 44.624 727.412 44.3253 728.18 43.984ZM729.204 43.728C729.204 45.0933 728.607 46.032 727.412 46.544C727.412 46.4587 727.369 46.3733 727.284 46.288C727.284 46.2027 727.284 46.1173 727.284 46.032C727.284 45.264 727.583 44.5813 728.18 43.984C728.351 43.8987 728.479 43.856 728.564 43.856C728.735 43.7707 728.905 43.6427 729.076 43.472L729.204 43.728ZM732.788 26.192L731.252 22.608C732.703 23.2053 733.897 23.8453 734.836 24.528C735.263 24.784 735.476 25.1253 735.476 25.552C735.561 25.9787 735.476 26.3627 735.22 26.704C734.793 27.1307 734.367 27.344 733.94 27.344H733.556L732.788 26.192ZM713.588 26.192L712.82 27.344C712.223 27.5147 711.711 27.3013 711.284 26.704C711.028 26.3627 710.9 25.9787 710.9 25.552C710.985 25.1253 711.199 24.784 711.54 24.528C712.82 23.6747 714.057 23.0347 715.252 22.608L713.588 26.192ZM726.516 21.456C728.137 21.712 729.716 22.096 731.252 22.608L732.788 26.192C731.252 23.9733 729.161 22.48 726.516 21.712V21.456ZM723.188 21.328C721.225 21.328 719.391 21.7973 717.684 22.736C716.063 23.5893 714.697 24.7413 713.588 26.192L715.252 22.608C717.641 21.6693 720.287 21.2 723.188 21.2C723.785 21.2 724.34 21.2427 724.852 21.328C725.364 21.328 725.919 21.3707 726.516 21.456V21.712C725.492 21.456 724.383 21.328 723.188 21.328ZM732.788 26.192L733.556 27.344C733.471 27.344 733.428 27.344 733.428 27.344C733.428 27.2587 733.385 27.216 733.3 27.216L732.788 26.192ZM713.076 27.216C713.076 27.216 712.991 27.2587 712.82 27.344L713.588 26.192L713.076 27.216ZM733.044 27.088C731.252 25.8933 729.076 25.0827 726.516 24.656V21.712C729.161 22.48 731.252 23.9733 732.788 26.192L733.3 27.216C733.215 27.216 733.129 27.1733 733.044 27.088ZM713.588 26.192C714.697 24.7413 716.063 23.5893 717.684 22.736C719.391 21.7973 721.225 21.328 723.188 21.328C724.383 21.328 725.492 21.456 726.516 21.712V24.656C726.004 24.4853 725.449 24.4 724.852 24.4C724.34 24.4 723.785 24.4 723.188 24.4C719.007 24.4 715.764 25.296 713.46 27.088C713.375 27.088 713.289 27.1307 713.204 27.216C713.204 27.216 713.161 27.216 713.076 27.216L713.588 26.192ZM721.524 35.024C721.524 34 721.993 33.4027 722.932 33.232L721.78 35.92C721.609 35.7493 721.524 35.4507 721.524 35.024ZM723.188 36.688C722.505 36.688 722.036 36.432 721.78 35.92L722.932 33.232H723.188C724.383 33.232 724.98 33.8293 724.98 35.024C724.98 36.1333 724.383 36.688 723.188 36.688ZM720.884 4.432C720.884 4.944 721.055 5.41333 721.396 5.84C721.737 6.18133 722.121 6.43733 722.548 6.60799L722.292 7.12C721.78 6.94933 721.311 6.65067 720.884 6.224C720.543 5.712 720.372 5.11466 720.372 4.432C720.372 3.664 720.628 3.024 721.14 2.51199C721.737 1.91466 722.42 1.616 723.188 1.616C723.956 1.616 724.596 1.91466 725.108 2.51199C725.705 3.024 726.004 3.664 726.004 4.432C726.004 5.79733 725.364 6.69333 724.084 7.12L723.956 6.60799C724.98 6.18133 725.492 5.456 725.492 4.432C725.492 3.74933 725.279 3.19466 724.852 2.768C724.425 2.34133 723.871 2.128 723.188 2.128C722.505 2.128 721.951 2.34133 721.524 2.768C721.097 3.19466 720.884 3.74933 720.884 4.432ZM724.084 7.12L723.956 6.60799C723.785 6.60799 723.657 6.65066 723.572 6.736C723.487 6.736 723.359 6.736 723.188 6.736C723.017 6.736 722.889 6.736 722.804 6.736C722.719 6.65066 722.633 6.60799 722.548 6.60799L722.292 7.12C722.463 7.12 722.591 7.16266 722.676 7.24799C722.847 7.24799 723.017 7.24799 723.188 7.24799C723.359 7.24799 723.487 7.24799 723.572 7.24799C723.743 7.16266 723.913 7.12 724.084 7.12ZM725.492 4.432C725.492 5.456 724.98 6.18133 723.956 6.60799L723.7 6.09599C724.553 5.84 724.98 5.28533 724.98 4.432C724.98 3.23733 724.383 2.64 723.188 2.64C722.079 2.64 721.524 3.23733 721.524 4.432C721.524 5.2 721.908 5.75466 722.676 6.09599L722.548 6.60799C722.121 6.43733 721.737 6.18133 721.396 5.84C721.055 5.41333 720.884 4.944 720.884 4.432C720.884 3.74933 721.097 3.19466 721.524 2.768C721.951 2.34133 722.505 2.128 723.188 2.128C723.871 2.128 724.425 2.34133 724.852 2.768C725.279 3.19466 725.492 3.74933 725.492 4.432ZM723.188 6.224C723.273 6.224 723.359 6.224 723.444 6.224C723.529 6.13866 723.615 6.09599 723.7 6.09599L723.956 6.60799C723.785 6.60799 723.657 6.65066 723.572 6.736C723.487 6.736 723.359 6.736 723.188 6.736C723.017 6.736 722.889 6.736 722.804 6.736C722.719 6.65066 722.633 6.60799 722.548 6.60799L722.676 6.09599C722.847 6.09599 722.932 6.13866 722.932 6.224C723.017 6.224 723.103 6.224 723.188 6.224ZM723.188 50.64C722.591 50.64 722.292 50.3413 722.292 49.744C722.292 49.1467 722.591 48.848 723.188 48.848C723.785 48.848 724.084 49.1467 724.084 49.744C724.084 50.3413 723.785 50.64 723.188 50.64ZM723.188 55.504C722.847 55.504 722.591 55.2907 722.42 54.864H724.084C723.913 55.2907 723.615 55.504 723.188 55.504ZM723.188 53.712C723.785 53.712 724.084 54.0107 724.084 54.608V54.864H722.42C722.42 54.864 722.377 54.7787 722.292 54.608C722.292 54.0107 722.591 53.712 723.188 53.712ZM723.188 58.576C723.785 58.576 724.084 58.8747 724.084 59.472C724.084 60.0693 723.785 60.368 723.188 60.368C722.591 60.368 722.292 60.0693 722.292 59.472C722.292 58.8747 722.591 58.576 723.188 58.576ZM717.3 29.648C718.239 29.648 719.007 29.9893 719.604 30.672C720.287 31.2693 720.628 32.0373 720.628 32.976H713.972C713.972 32.0373 714.271 31.2693 714.868 30.672C715.551 29.9893 716.361 29.648 717.3 29.648ZM726.516 32.592V30.544C727.113 29.9467 727.881 29.648 728.82 29.648C729.673 29.648 730.399 29.9467 730.996 30.544C731.593 31.056 731.935 31.7387 732.02 32.592H726.516ZM725.492 32.976C725.492 32.0373 725.833 31.2267 726.516 30.544V32.592H732.02C732.02 32.6773 732.02 32.7627 732.02 32.848C732.105 32.848 732.148 32.8907 732.148 32.976H725.492ZM721.012 37.456L720.372 39.12C720.031 38.4373 719.86 37.8827 719.86 37.456H721.012ZM726.516 37.712L726.388 37.456H726.516V37.712ZM723.188 40.784C721.823 40.784 720.884 40.2293 720.372 39.12L721.012 37.456H726.388L726.516 37.712C726.431 38.5653 726.089 39.2907 725.492 39.888C724.895 40.4853 724.127 40.784 723.188 40.784ZM718.836 87.504C719.519 87.0773 719.689 86.4373 719.348 85.584C720.031 86.1813 720.5 86.864 720.756 87.632L710.772 91.216C710.601 90.704 710.644 90.1493 710.9 89.552C711.241 89.04 711.668 88.4853 712.18 87.888C712.692 87.2907 713.247 86.7787 713.844 86.352C714.441 85.9253 714.996 85.584 715.508 85.328C715.679 85.6693 715.849 85.968 716.02 86.224C716.276 86.5653 716.489 86.864 716.66 87.12C716.831 87.5467 717.257 87.76 717.94 87.76C718.367 87.76 718.665 87.6747 718.836 87.504ZM716.02 85.072C717.215 84.6453 718.324 84.816 719.348 85.584C719.689 86.4373 719.519 87.0773 718.836 87.504C718.665 87.6747 718.367 87.76 717.94 87.76C717.257 87.76 716.831 87.5467 716.66 87.12C716.489 86.864 716.276 86.5653 716.02 86.224C715.849 85.968 715.679 85.6693 715.508 85.328C715.679 85.1573 715.849 85.072 716.02 85.072ZM727.54 85.584C727.199 86.352 727.369 86.992 728.052 87.504C728.137 87.504 728.18 87.5467 728.18 87.632L726.772 87.12C726.857 86.7787 726.943 86.48 727.028 86.224C727.199 85.968 727.369 85.7547 727.54 85.584ZM730.356 87.12C730.612 86.6933 730.868 86.2667 731.124 85.84C731.38 85.4987 731.593 85.1147 731.764 84.688C732.276 84.8587 732.831 85.1573 733.428 85.584C734.111 86.096 734.708 86.6507 735.22 87.248C735.817 87.8453 736.244 88.4427 736.5 89.04C736.841 89.6373 736.969 90.192 736.884 90.704L728.82 87.76H729.076C729.588 87.76 730.015 87.5467 730.356 87.12ZM727.54 85.584C728.735 84.3893 730.057 84.048 731.508 84.56C731.593 84.56 731.679 84.6027 731.764 84.688C731.593 85.1147 731.38 85.4987 731.124 85.84C730.868 86.2667 730.612 86.6933 730.356 87.12C730.015 87.5467 729.588 87.76 729.076 87.76H728.82L728.18 87.632C728.18 87.5467 728.137 87.504 728.052 87.504C727.369 86.992 727.199 86.352 727.54 85.584ZM807.029 28.112C805.834 25.296 804.469 22.5653 802.933 19.92C801.482 17.2747 799.648 14.8 797.429 12.496L784.757 17.104V1.488H807.029V28.112ZM846.069 62.544V82.128H788.853C787.573 82.7253 786.506 83.1947 785.653 83.536C784.8 83.8773 784.202 84.048 783.861 84.048C782.24 84.048 780.832 83.1947 779.637 81.488C778.528 79.696 777.504 77.392 776.565 74.576C775.541 71.6747 774.602 68.432 773.749 64.848C772.896 61.264 771.957 57.6373 770.933 53.968C769.909 50.2987 768.714 46.7573 767.349 43.344C765.984 39.9307 764.32 36.9867 762.357 34.512C762.954 34.3413 763.552 34.128 764.149 33.872C764.746 33.616 765.344 33.4027 765.941 33.232C767.818 37.072 769.312 41.1253 770.421 45.392C771.445 49.6587 772.469 53.9253 773.493 58.192C774.432 62.3733 775.498 66.384 776.693 70.224C777.888 74.064 779.552 77.52 781.685 80.592C782.368 81.5307 783.093 82.0427 783.861 82.128C784.714 82.2987 785.525 82.2987 786.293 82.128H786.165C786.762 81.2747 786.805 80.5493 786.293 79.952C785.781 79.3547 785.269 78.8853 784.757 78.544L783.989 78.16L784.757 77.776L813.173 62.544L816.501 60.752L820.469 58.576L821.877 57.808C822.474 58.2347 822.944 58.6613 823.285 59.088C823.626 59.5147 823.882 60.0267 824.053 60.624C824.224 61.2213 824.138 61.8613 823.797 62.544C823.968 62.3733 823.882 62.3733 823.541 62.544H846.069ZM798.581 38.096C799.52 37.84 800.288 37.4987 800.885 37.072C801.568 36.56 802.464 36.2613 803.573 36.176H803.829C803.914 36.2613 803.957 36.3467 803.957 36.432C803.957 36.6027 803.914 36.688 803.829 36.688C803.829 36.688 803.829 36.7307 803.829 36.816C803.744 36.816 803.701 36.8587 803.701 36.944C803.701 36.944 803.616 36.944 803.445 36.944C802.506 37.0293 801.653 37.328 800.885 37.84C800.202 38.2667 799.392 38.6507 798.453 38.992C797.258 39.4187 796.064 39.8027 794.869 40.144C793.76 40.4 792.608 40.6987 791.413 41.04L791.285 40.784L791.413 41.04H791.285H791.029C791.029 40.9547 790.986 40.8693 790.901 40.784C790.986 40.6133 791.072 40.4853 791.157 40.4C791.157 40.4 791.2 40.3573 791.285 40.272C792.48 39.8453 793.674 39.504 794.869 39.248C796.149 38.9067 797.386 38.5227 798.581 38.096ZM784.757 69.072C784.33 69.2427 783.946 69.456 783.605 69.712C783.264 69.8827 782.922 70.0533 782.581 70.224L782.453 69.968L782.581 70.224H782.325H782.069C781.984 70.1387 781.941 70.0533 781.941 69.968C782.026 69.712 782.154 69.5413 782.325 69.456C782.752 69.2853 783.136 69.1147 783.477 68.944C783.904 68.688 784.33 68.432 784.757 68.176C785.696 67.664 786.634 67.152 787.573 66.64C788.597 66.128 789.578 65.5307 790.517 64.848C790.517 64.848 790.602 64.8053 790.773 64.72C790.944 64.72 791.029 64.7627 791.029 64.848C791.114 64.9333 791.157 65.0187 791.157 65.104C791.157 65.1893 791.072 65.3173 790.901 65.488C789.962 66.1707 788.938 66.8107 787.829 67.408C786.805 68.0053 785.781 68.56 784.757 69.072ZM775.157 43.344C774.986 43.1733 774.901 43.0453 774.901 42.96C774.901 42.704 775.029 42.576 775.285 42.576C776.565 42.576 777.845 42.2773 779.125 41.68C780.32 41.0827 781.429 40.3147 782.453 39.376C782.709 39.12 782.965 38.9067 783.221 38.736C783.477 38.48 783.818 38.352 784.245 38.352H784.629C784.629 38.352 784.672 38.3947 784.757 38.48C785.184 38.5653 785.525 38.6507 785.781 38.736C786.122 38.736 786.464 38.736 786.805 38.736C787.232 38.736 787.53 38.6933 787.701 38.608C788.469 38.2667 789.237 37.968 790.005 37.712C790.773 37.3707 791.413 36.8587 791.925 36.176C792.266 35.8347 792.565 35.4933 792.821 35.152C793.077 34.8107 793.418 34.512 793.845 34.256C794.528 33.8293 795.04 33.616 795.381 33.616C795.808 33.616 796.149 33.7013 796.405 33.872C796.661 33.9573 796.96 34.0853 797.301 34.256H797.429C797.685 34.256 797.813 34.3413 797.813 34.512V34.768C797.813 35.024 797.728 35.152 797.557 35.152H797.301C796.96 34.9813 796.618 34.8107 796.277 34.64C796.021 34.4693 795.722 34.384 795.381 34.384C795.04 34.384 794.698 34.512 794.357 34.768C793.589 35.4507 792.778 36.3467 791.925 37.456C791.498 37.7973 791.072 38.0533 790.645 38.224C790.218 38.3947 789.792 38.5653 789.365 38.736C789.194 38.8213 788.896 38.992 788.469 39.248C788.042 39.504 787.616 39.632 787.189 39.632H787.061C786.634 39.5467 786.208 39.4613 785.781 39.376C785.44 39.2907 785.098 39.2053 784.757 39.12H784.501C783.989 39.12 783.605 39.248 783.349 39.504C782.922 39.9307 782.453 40.3147 781.941 40.656C781.429 40.9973 780.96 41.3813 780.533 41.808C778.826 42.832 777.077 43.344 775.285 43.344H775.157ZM801.141 28.88C801.141 28.9653 801.184 29.0507 801.269 29.136C801.184 29.3067 801.098 29.4347 801.013 29.52C801.013 29.6053 800.928 29.648 800.757 29.648C800.672 29.648 800.586 29.6907 800.501 29.776C800.501 29.776 800.416 29.776 800.245 29.776C799.562 29.8613 798.922 30.0747 798.325 30.416C797.728 30.672 797.088 31.0133 796.405 31.44C796.234 31.5253 795.978 31.568 795.637 31.568C795.21 31.568 794.784 31.5253 794.357 31.44C793.93 31.2693 793.589 31.1413 793.333 31.056C792.906 31.312 792.48 31.696 792.053 32.208C791.541 32.976 790.986 33.5307 790.389 33.872C790.048 34.2133 789.664 34.4267 789.237 34.512C788.896 34.512 788.554 34.5547 788.213 34.64C787.872 34.7253 787.488 34.9387 787.061 35.28C786.634 35.6213 786.165 35.792 785.653 35.792H785.525H784.757C784.586 35.792 784.373 35.792 784.117 35.792C783.946 35.7067 783.776 35.664 783.605 35.664C782.837 35.664 782.325 35.792 782.069 36.048C780.704 37.328 779.424 38.224 778.229 38.736C777.034 39.248 775.541 39.5467 773.749 39.632H773.621H773.493C773.408 39.5467 773.365 39.4613 773.365 39.376C773.365 39.2053 773.408 39.12 773.493 39.12C773.493 39.12 773.493 39.0773 773.493 38.992C773.578 38.9067 773.706 38.864 773.877 38.864C775.242 38.7787 776.48 38.5653 777.589 38.224C778.613 37.8827 779.637 37.2427 780.661 36.304C781.088 35.8773 781.429 35.5787 781.685 35.408C781.941 35.152 782.41 35.024 783.093 35.024H784.757C785.61 34.8533 786.421 34.5547 787.189 34.128C787.616 33.9573 788.042 33.8293 788.469 33.744C788.896 33.6587 789.322 33.5307 789.749 33.36H790.005C790.261 33.104 790.602 32.72 791.029 32.208C791.456 31.696 791.882 31.2693 792.309 30.928C792.736 30.672 793.034 30.5013 793.205 30.416H793.845H794.229C794.485 30.416 794.698 30.4587 794.869 30.544C795.04 30.544 795.21 30.544 795.381 30.544C796.234 30.4587 797.258 30.0747 798.453 29.392C798.794 29.2213 799.221 29.0507 799.733 28.88H800.885H801.141ZM806.005 64.336H806.261C806.261 64.4213 806.304 64.5067 806.389 64.592C806.304 64.7627 806.261 64.8907 806.261 64.976C806.176 64.976 806.09 65.0187 806.005 65.104C804.981 65.4453 803.957 65.9147 802.933 66.512C801.909 67.1093 800.8 67.408 799.605 67.408H799.221C798.794 67.408 798.538 67.4507 798.453 67.536C798.453 67.536 798.24 67.7067 797.813 68.048L795.893 69.584C795.893 69.6693 795.808 69.712 795.637 69.712C795.552 69.712 795.466 69.6693 795.381 69.584C795.296 69.584 795.253 69.4987 795.253 69.328C795.253 69.2427 795.296 69.1573 795.381 69.072L796.789 67.664C797.557 66.896 798.154 66.512 798.581 66.512H799.093C800.288 66.512 801.397 66.256 802.421 65.744C803.53 65.232 804.682 64.7627 805.877 64.336H806.005ZM784.373 74.96C784.288 74.96 784.202 74.9173 784.117 74.832C784.117 74.832 784.074 74.7467 783.989 74.576C784.074 74.4053 784.16 74.32 784.245 74.32C784.245 74.2347 784.33 74.1493 784.501 74.064H784.757C785.184 74.064 785.525 74.0213 785.781 73.936C786.037 73.7653 786.421 73.5093 786.933 73.168C787.104 72.9973 787.317 72.8267 787.573 72.656C787.829 72.4853 788.085 72.3573 788.341 72.272L794.101 70.352H794.229C794.229 70.352 794.314 70.3947 794.485 70.48V70.736C794.485 70.8213 794.442 70.9067 794.357 70.992C794.357 70.992 794.314 71.0347 794.229 71.12C793.205 71.4613 792.181 71.8027 791.157 72.144C790.218 72.4853 789.28 72.784 788.341 73.04C788 73.2107 787.616 73.4667 787.189 73.808C786.848 74.064 786.506 74.32 786.165 74.576C785.824 74.832 785.397 74.96 784.885 74.96H784.757H784.373ZM806.645 58.32C806.73 58.2347 806.773 58.192 806.773 58.192C806.858 58.192 806.944 58.1493 807.029 58.064C807.712 57.6373 808.309 57.296 808.821 57.04C809.418 56.6987 810.144 56.4427 810.997 56.272H811.125C811.125 56.272 811.21 56.3147 811.381 56.4C811.381 56.4853 811.381 56.528 811.381 56.528C811.466 56.528 811.509 56.5707 811.509 56.656C811.509 56.7413 811.424 56.8693 811.253 57.04V57.168H810.997C810.229 57.3387 809.546 57.5947 808.949 57.936C808.352 58.2773 807.712 58.6613 807.029 59.088C806.688 59.2587 806.389 59.3867 806.133 59.472C806.048 59.5573 805.834 59.6 805.493 59.6C805.152 59.6 804.81 59.6 804.469 59.6C804.213 59.5147 804 59.472 803.829 59.472H803.573C803.146 59.472 802.89 59.5147 802.805 59.6C802.805 59.6853 802.592 59.9413 802.165 60.368C801.738 60.7947 801.312 61.3067 800.885 61.904C800.544 62.5013 800.032 62.8853 799.349 63.056C798.41 63.3973 797.472 63.696 796.533 63.952C795.594 64.208 794.656 64.5067 793.717 64.848L793.589 64.464L793.717 64.848H793.589C793.589 64.848 793.504 64.8053 793.333 64.72C793.333 64.72 793.29 64.6347 793.205 64.464C793.29 64.3787 793.333 64.2933 793.333 64.208L793.589 63.952C794.528 63.696 795.509 63.44 796.533 63.184C797.557 62.8427 798.538 62.5013 799.477 62.16C799.904 61.9893 800.416 61.4773 801.013 60.624C801.61 59.7707 802.165 59.1307 802.677 58.704C802.933 58.5333 803.317 58.448 803.829 58.448C804.085 58.448 804.384 58.4907 804.725 58.576C805.066 58.576 805.365 58.576 805.621 58.576C805.962 58.576 806.304 58.4907 806.645 58.32ZM799.605 55.632C800.885 54.4373 802.08 53.5413 803.189 52.944C804.298 52.2613 805.578 51.7493 807.029 51.408C807.712 51.2373 808.266 51.1093 808.693 51.024H808.821C808.821 51.024 808.864 51.0667 808.949 51.152C809.034 51.152 809.077 51.2373 809.077 51.408C809.077 51.4933 809.034 51.5787 808.949 51.664L808.693 51.92C808.352 52.0053 808.053 52.048 807.797 52.048C807.541 52.048 807.285 52.0907 807.029 52.176C806.005 52.432 805.024 52.7733 804.085 53.2C803.232 53.6267 802.336 54.2667 801.397 55.12C801.056 55.376 800.757 55.6747 800.501 56.016C800.245 56.272 799.861 56.4427 799.349 56.528C798.496 56.6987 797.728 56.8267 797.045 56.912C796.448 56.912 795.765 57.1253 794.997 57.552C794.57 57.8933 794.144 58.1493 793.717 58.32C793.29 58.4053 792.821 58.5333 792.309 58.704C791.882 58.8747 791.584 59.0453 791.413 59.216C791.242 59.3867 791.029 59.6427 790.773 59.984C790.517 60.24 790.261 60.496 790.005 60.752C789.834 60.9227 789.749 61.008 789.749 61.008C789.066 61.8613 788.298 62.288 787.445 62.288H787.189H786.421C785.824 62.288 785.269 62.416 784.757 62.672C784.501 62.8427 784.202 63.0133 783.861 63.184C783.605 63.2693 783.264 63.44 782.837 63.696C782.069 64.1227 781.258 64.336 780.405 64.336H780.277H780.149C780.064 64.2507 780.021 64.1653 780.021 64.08C780.021 63.9093 780.021 63.824 780.021 63.824C780.106 63.824 780.149 63.7813 780.149 63.696C780.234 63.696 780.277 63.696 780.277 63.696C780.277 63.6107 780.362 63.568 780.533 63.568C781.301 63.3973 781.984 63.1413 782.581 62.8C783.264 62.4587 783.989 62.0747 784.757 61.648V61.52C785.269 61.3493 785.696 61.264 786.037 61.264C786.378 61.264 786.677 61.3067 786.933 61.392C787.274 61.4773 787.573 61.52 787.829 61.52H787.957C788.213 61.52 788.64 61.2213 789.237 60.624L789.621 60.24C789.792 59.984 789.962 59.728 790.133 59.472C790.389 59.216 790.688 58.96 791.029 58.704C791.029 58.704 791.114 58.6187 791.285 58.448C791.626 58.1067 791.968 57.8933 792.309 57.808C792.736 57.7227 793.162 57.6373 793.589 57.552C794.016 57.3813 794.4 57.1253 794.741 56.784C795.168 56.3573 795.637 56.1013 796.149 56.016H798.069C798.922 56.016 799.434 55.888 799.605 55.632ZM776.053 47.696C776.053 47.696 775.968 47.6533 775.797 47.568V47.312C775.797 47.1413 775.84 47.056 775.925 47.056C775.925 46.9707 776.01 46.8853 776.181 46.8C777.376 46.4587 778.57 45.9893 779.765 45.392C781.045 44.7947 782.368 44.496 783.733 44.496H784.245H784.757C785.098 44.4107 785.653 44.1547 786.421 43.728C786.848 43.3867 787.274 43.088 787.701 42.832C788.128 42.576 788.554 42.2773 788.981 41.936C789.066 41.936 789.109 41.936 789.109 41.936C789.109 41.8507 789.152 41.808 789.237 41.808C789.408 41.808 789.493 41.8507 789.493 41.936C789.578 42.0213 789.621 42.1067 789.621 42.192C789.621 42.2773 789.536 42.4053 789.365 42.576C789.194 42.7467 788.938 43.0027 788.597 43.344C788.256 43.6 787.872 43.8987 787.445 44.24C787.018 44.496 786.592 44.752 786.165 45.008C785.824 45.264 785.482 45.392 785.141 45.392H785.013H784.757H784.373C783.008 45.392 781.642 45.6907 780.277 46.288C778.997 46.8 777.632 47.2693 776.181 47.696H776.053ZM776.053 30.8C776.053 30.288 776.224 29.9893 776.565 29.904H776.821C777.248 29.904 777.589 30.1173 777.845 30.544C777.93 30.7147 777.973 30.8853 777.973 31.056C777.973 31.4827 777.717 31.824 777.205 32.08C777.29 32.2507 777.461 32.336 777.717 32.336H777.845C778.101 32.336 778.229 32.2507 778.229 32.08V31.952C778.229 31.8667 778.314 31.7387 778.485 31.568C778.4 31.4827 778.357 31.3973 778.357 31.312C778.101 30.8 777.973 30.3733 777.973 30.032C777.973 29.3493 778.272 28.8373 778.869 28.496C779.04 28.4107 779.21 28.368 779.381 28.368C779.978 28.368 780.32 28.5387 780.405 28.88C780.49 28.9653 780.533 29.0507 780.533 29.136V29.264L780.405 29.392L780.533 29.264C780.874 29.9467 781.173 30.416 781.429 30.672H781.557C781.386 30.16 781.13 29.5627 780.789 28.88C780.618 28.7093 780.533 28.5813 780.533 28.496C780.448 28.496 780.405 28.4107 780.405 28.24C780.405 27.984 780.49 27.856 780.661 27.856H780.917C781.088 27.856 781.173 27.8987 781.173 27.984C781.258 27.984 781.344 27.984 781.429 27.984L781.557 27.856H781.685C781.941 27.856 782.069 27.9413 782.069 28.112C782.154 28.2827 782.197 28.4107 782.197 28.496L782.709 29.52L782.965 30.032H783.093C783.093 30.032 783.136 29.9467 783.221 29.776H783.477C783.562 29.776 783.69 29.8613 783.861 30.032V30.16C783.861 30.5013 783.69 30.7573 783.349 30.928C783.264 30.928 783.178 30.9707 783.093 31.056C783.093 31.056 783.05 31.056 782.965 31.056C782.709 31.056 782.538 30.928 782.453 30.672V31.056C782.453 31.312 782.368 31.4827 782.197 31.568H782.069C781.898 31.568 781.77 31.5253 781.685 31.44C781.685 31.5253 781.642 31.568 781.557 31.568H781.301C781.13 31.568 781.002 31.5253 780.917 31.44C780.746 31.952 780.533 32.2507 780.277 32.336C780.106 32.336 779.978 32.3787 779.893 32.464C779.893 32.464 779.85 32.464 779.765 32.464C779.594 32.3787 779.466 32.336 779.381 32.336C779.296 32.336 779.21 32.2933 779.125 32.208C779.04 32.5493 778.698 32.848 778.101 33.104C778.016 33.1893 777.845 33.232 777.589 33.232C777.077 33.232 776.693 32.9333 776.437 32.336C776.266 31.9947 776.181 31.4827 776.181 30.8H776.053ZM779.253 29.264C778.997 29.264 778.869 29.4773 778.869 29.904C778.869 30.16 778.954 30.4587 779.125 30.8C779.296 31.2267 779.509 31.44 779.765 31.44H779.893C780.064 31.44 780.149 31.2693 780.149 30.928C780.149 30.416 780.064 29.9893 779.893 29.648C779.722 29.4773 779.637 29.392 779.637 29.392V29.264H779.381H779.253C779.253 29.264 779.21 29.1787 779.125 29.008L779.253 29.264ZM777.077 30.928C777.077 30.8427 777.034 30.8 776.949 30.8C776.949 30.9707 776.992 31.1413 777.077 31.312V31.184V30.928ZM784.757 27.728C784.33 27.728 784.032 27.5573 783.861 27.216C783.776 27.1307 783.733 26.96 783.733 26.704V26.576C783.733 26.064 784.074 25.5947 784.757 25.168C784.928 24.9973 785.098 24.912 785.269 24.912C785.61 24.7413 786.037 24.656 786.549 24.656C787.232 24.656 787.658 24.784 787.829 25.04C787.914 25.1253 787.957 25.2107 787.957 25.296C787.957 25.3813 787.914 25.424 787.829 25.424C787.829 25.424 787.829 25.4667 787.829 25.552L787.701 25.68H787.445C787.189 25.68 786.976 25.6373 786.805 25.552H786.549C786.208 25.552 785.952 25.5947 785.781 25.68C785.61 25.7653 785.44 25.8507 785.269 25.936C785.184 26.0213 785.056 26.1067 784.885 26.192C784.8 26.2773 784.757 26.4053 784.757 26.576C784.672 26.576 784.629 26.6187 784.629 26.704L784.757 26.832C784.757 26.9173 784.8 26.96 784.885 26.96H785.141C785.312 26.96 785.482 26.96 785.653 26.96C785.909 26.8747 786.165 26.832 786.421 26.832C786.677 26.7467 787.018 26.704 787.445 26.704C788.042 26.704 788.469 26.832 788.725 27.088C788.554 26.832 788.469 26.448 788.469 25.936C788.469 25.424 788.597 25.04 788.853 24.784C789.109 24.528 789.28 24.4 789.365 24.4C789.45 24.3147 789.578 24.272 789.749 24.272H790.005C790.346 24.4427 790.645 24.6133 790.901 24.784V25.04C790.986 25.04 791.029 25.0827 791.029 25.168C791.2 25.5947 791.37 25.8933 791.541 26.064C791.712 26.2347 791.797 26.3627 791.797 26.448H791.925H792.053C792.053 26.448 791.882 26.192 791.541 25.68C791.37 25.3387 791.285 25.1253 791.285 25.04C791.2 24.9547 791.157 24.9547 791.157 25.04C791.157 25.04 791.114 24.9547 791.029 24.784V24.656C791.029 24.4853 791.157 24.3147 791.413 24.144H791.541C791.797 24.144 791.925 24.2293 791.925 24.4C792.01 24.4853 792.053 24.5707 792.053 24.656V24.784V24.4C792.053 24.144 792.138 23.9733 792.309 23.888H792.565C792.65 23.888 792.736 23.9307 792.821 24.016C792.906 23.8453 793.034 23.76 793.205 23.76C793.29 23.6747 793.376 23.632 793.461 23.632C793.29 23.2907 793.205 23.12 793.205 23.12C793.205 23.12 793.162 23.0347 793.077 22.864C793.077 22.608 793.205 22.48 793.461 22.48C793.461 22.3947 793.504 22.352 793.589 22.352C793.674 22.352 793.717 22.3947 793.717 22.48C793.717 22.48 793.76 22.48 793.845 22.48C793.845 22.5653 793.888 22.608 793.973 22.608C793.973 22.6933 794.016 22.7787 794.101 22.864C794.101 22.9493 794.101 23.0347 794.101 23.12C794.186 23.12 794.229 23.1627 794.229 23.248H794.485C794.741 23.248 794.869 23.3333 794.869 23.504H794.997V23.248V22.864C795.168 22.2667 795.424 21.9253 795.765 21.84C795.936 21.7547 796.106 21.712 796.277 21.712C796.874 21.712 797.216 21.8827 797.301 22.224C797.386 22.3093 797.429 22.3947 797.429 22.48L797.557 22.608L797.301 22.736L797.557 22.608C797.728 22.9493 797.898 23.248 798.069 23.504C798.24 23.6747 798.325 23.8027 798.325 23.888H798.453C798.709 23.888 798.837 23.9733 798.837 24.144C798.922 24.144 798.965 24.1867 798.965 24.272C798.965 24.3573 798.837 24.528 798.581 24.784H798.325C798.154 24.784 798.026 24.7413 797.941 24.656C797.856 24.9973 797.642 25.2533 797.301 25.424L797.173 25.552H796.789C796.192 25.552 795.68 25.2107 795.253 24.528C795.082 24.1867 794.997 23.888 794.997 23.632C794.997 23.888 794.869 24.016 794.613 24.016C794.698 24.4427 794.826 24.7413 794.997 24.912C794.997 24.9973 795.04 25.0827 795.125 25.168C795.125 25.2533 795.168 25.296 795.253 25.296H795.381C795.381 25.2107 795.424 25.168 795.509 25.168C795.765 25.168 795.893 25.2533 795.893 25.424C795.893 25.424 795.936 25.5093 796.021 25.68C795.936 25.936 795.765 26.1067 795.509 26.192H795.253C794.826 26.192 794.485 25.936 794.229 25.424L793.717 24.4C793.717 24.4853 793.674 24.528 793.589 24.528H793.333C793.248 24.6133 793.205 24.6133 793.205 24.528C793.205 24.6987 793.248 24.8267 793.333 24.912C793.674 25.424 793.845 25.68 793.845 25.68C793.845 25.68 793.888 25.6373 793.973 25.552H794.101C794.186 25.552 794.314 25.6373 794.485 25.808V26.064C794.485 26.2347 794.4 26.4053 794.229 26.576H793.845C793.504 26.576 793.29 26.448 793.205 26.192V26.704C793.205 26.96 793.12 27.1307 792.949 27.216H792.821C792.65 27.216 792.522 27.216 792.437 27.216C792.437 27.1307 792.394 27.088 792.309 27.088C792.309 27.2587 792.224 27.344 792.053 27.344C791.968 27.4293 791.882 27.472 791.797 27.472C791.712 27.472 791.626 27.472 791.541 27.472C791.541 27.3867 791.498 27.344 791.413 27.344C791.242 27.7707 790.986 28.0267 790.645 28.112C790.56 28.1973 790.432 28.24 790.261 28.24C789.749 28.24 789.322 27.984 788.981 27.472C788.981 27.5573 788.981 27.6427 788.981 27.728C789.066 27.728 789.109 27.7707 789.109 27.856C788.938 28.5387 788.426 29.0507 787.573 29.392C786.89 29.648 786.378 29.776 786.037 29.776C785.866 29.6907 785.696 29.648 785.525 29.648C785.44 29.648 785.354 29.5627 785.269 29.392C785.184 29.3067 785.141 29.2213 785.141 29.136C785.141 28.7947 785.312 28.624 785.653 28.624C785.653 28.5387 785.696 28.496 785.781 28.496C785.952 28.496 786.08 28.5813 786.165 28.752V28.88C786.336 28.88 786.464 28.88 786.549 28.88C786.72 28.7947 786.933 28.7093 787.189 28.624C787.786 28.368 788.085 28.112 788.085 27.856V27.728H787.957C787.872 27.728 787.786 27.728 787.701 27.728C787.701 27.6427 787.616 27.6 787.445 27.6C787.018 27.6 786.634 27.6427 786.293 27.728C786.122 27.728 785.909 27.7707 785.653 27.856C785.482 27.856 785.312 27.856 785.141 27.856C785.056 27.856 784.97 27.856 784.885 27.856C784.885 27.7707 784.842 27.728 784.757 27.728ZM798.325 24.016V24.144V24.016ZM796.149 22.608C795.893 22.608 795.765 22.8213 795.765 23.248C795.765 23.4187 795.85 23.6747 796.021 24.016C796.106 24.3573 796.277 24.528 796.533 24.528C796.618 24.6133 796.704 24.656 796.789 24.656H796.917C797.088 24.656 797.173 24.4853 797.173 24.144C797.173 23.888 797.045 23.504 796.789 22.992L796.533 22.736V22.608H796.277C796.277 22.608 796.192 22.5653 796.021 22.48L796.149 22.608ZM789.621 25.168C789.365 25.168 789.237 25.3813 789.237 25.808C789.237 25.8933 789.322 26.192 789.493 26.704C789.749 27.1307 790.005 27.344 790.261 27.344H790.389C790.56 27.1733 790.645 26.96 790.645 26.704C790.645 26.448 790.517 26.064 790.261 25.552L790.005 25.296V25.168H789.749C789.749 25.168 789.664 25.1253 789.493 25.04L789.621 25.168ZM770.293 31.568C770.208 31.568 770.165 31.5253 770.165 31.44C770.08 31.44 770.037 31.3973 770.037 31.312C770.037 31.1413 770.208 30.8853 770.549 30.544C770.805 30.288 771.146 30.0747 771.573 29.904C771.914 29.7333 772.384 29.648 772.981 29.648H773.621C773.792 29.7333 773.962 29.776 774.133 29.776C774.304 29.776 774.474 29.8613 774.645 30.032C775.242 30.288 775.669 30.672 775.925 31.184C776.096 31.5253 776.181 31.824 776.181 32.08C776.181 32.592 776.053 33.0187 775.797 33.36C775.456 33.9573 774.944 34.384 774.261 34.64C774.176 34.64 774.09 34.6827 774.005 34.768C774.005 34.9387 773.92 35.024 773.749 35.024H773.621C773.45 35.024 773.365 34.9813 773.365 34.896C773.28 34.8107 773.152 34.7253 772.981 34.64C772.981 34.4693 772.938 34.3413 772.853 34.256C772.768 34.0853 772.682 33.872 772.597 33.616C772.341 33.104 772.128 32.6347 771.957 32.208C771.786 31.7813 771.616 31.44 771.445 31.184V30.928C771.104 31.0987 770.976 31.184 771.061 31.184V31.312C770.976 31.3973 770.933 31.4827 770.933 31.568C770.933 31.568 770.848 31.6107 770.677 31.696H770.549C770.378 31.696 770.293 31.6533 770.293 31.568ZM772.213 30.544C772.213 30.6293 772.256 30.7147 772.341 30.8C772.512 31.1413 772.682 31.5253 772.853 31.952C773.024 32.2933 773.237 32.7627 773.493 33.36C773.493 33.5307 773.578 33.7013 773.749 33.872H774.005C774.176 33.7867 774.346 33.7013 774.517 33.616C774.602 33.4453 774.73 33.2747 774.901 33.104C775.157 32.7627 775.285 32.4213 775.285 32.08C775.285 31.9947 775.285 31.9093 775.285 31.824C775.2 31.7387 775.157 31.6533 775.157 31.568C774.901 30.9707 774.346 30.6293 773.493 30.544H773.237H772.981H772.213ZM798.197 50C799.648 50 801.098 49.6587 802.549 48.976C804.085 48.2933 805.578 47.696 807.029 47.184H807.157H807.285C807.37 47.184 807.456 47.2267 807.541 47.312C807.626 47.312 807.669 47.3547 807.669 47.44C807.669 47.6107 807.626 47.696 807.541 47.696C807.541 47.696 807.541 47.7387 807.541 47.824C807.456 47.824 807.413 47.8667 807.413 47.952C807.413 47.952 807.37 47.952 807.285 47.952C807.2 48.0373 807.114 48.08 807.029 48.08C805.834 48.5067 804.597 49.0613 803.317 49.744C802.037 50.3413 800.714 50.7253 799.349 50.896C798.325 50.896 797.429 51.1947 796.661 51.792C795.893 52.304 795.04 52.9013 794.101 53.584C794.016 53.584 793.973 53.6267 793.973 53.712C793.973 53.712 793.888 53.712 793.717 53.712C793.717 53.712 793.632 53.6693 793.461 53.584V53.328C793.461 53.2427 793.546 53.1147 793.717 52.944C794.144 52.5173 794.826 51.9627 795.765 51.28C796.192 50.9387 796.576 50.64 796.917 50.384C797.258 50.128 797.642 50 798.069 50H798.197ZM778.869 59.984C778.784 59.8987 778.741 59.8133 778.741 59.728C778.826 59.5573 778.912 59.4293 778.997 59.344C778.997 59.344 779.082 59.3013 779.253 59.216C780.192 59.0453 781.045 58.704 781.813 58.192C782.581 57.68 783.434 57.2533 784.373 56.912C784.544 56.912 784.672 56.8693 784.757 56.784C785.866 56.3573 786.976 56.016 788.085 55.76C789.194 55.4187 790.346 55.0347 791.541 54.608C791.541 54.5227 791.584 54.48 791.669 54.48C791.754 54.48 791.84 54.5227 791.925 54.608C792.01 54.6933 792.053 54.7787 792.053 54.864C792.053 55.0347 792.01 55.12 791.925 55.12C791.925 55.12 791.925 55.1627 791.925 55.248C791.84 55.248 791.754 55.2907 791.669 55.376L784.757 57.68C784.586 57.68 784.458 57.7227 784.373 57.808C784.373 57.808 784.33 57.808 784.245 57.808C783.306 58.064 782.496 58.4907 781.813 59.088C781.13 59.6 780.234 59.8987 779.125 59.984H778.869ZM777.077 51.792C776.992 51.792 776.949 51.792 776.949 51.792C776.949 51.7067 776.906 51.664 776.821 51.664C776.821 51.5787 776.778 51.4933 776.693 51.408C776.778 51.2373 776.864 51.1093 776.949 51.024C776.949 51.024 777.034 50.9813 777.205 50.896C778.57 50.7253 779.765 50.4693 780.789 50.128C781.898 49.7013 783.05 49.0187 784.245 48.08L784.757 47.568C784.928 47.3973 785.098 47.2267 785.269 47.056C785.525 46.8853 785.866 46.7573 786.293 46.672C787.061 46.672 787.744 46.672 788.341 46.672C789.024 46.5867 789.706 46.3307 790.389 45.904C790.901 45.648 791.37 45.4773 791.797 45.392C792.224 45.2213 792.65 45.0507 793.077 44.88C793.333 44.7947 793.632 44.6667 793.973 44.496C794.144 44.24 794.357 43.984 794.613 43.728C794.869 43.472 795.125 43.216 795.381 42.96C795.381 42.96 795.466 42.8747 795.637 42.704C796.234 41.936 796.96 41.552 797.813 41.552H798.069H798.965C799.648 41.552 800.202 41.4667 800.629 41.296C801.056 41.1253 801.653 40.8267 802.421 40.4C803.189 39.9733 803.957 39.76 804.725 39.76H804.853H804.981C805.066 39.8453 805.109 39.9307 805.109 40.016C805.109 40.1867 805.066 40.3147 804.981 40.4C804.896 40.4853 804.81 40.528 804.725 40.528C803.872 40.6987 803.146 40.9547 802.549 41.296C801.952 41.552 801.226 41.8933 800.373 42.32C800.202 42.4907 799.861 42.576 799.349 42.576C798.752 42.576 798.112 42.4907 797.429 42.32C797.088 42.32 796.661 42.576 796.149 43.088L795.765 43.472C795.338 43.984 794.869 44.4533 794.357 44.88C794.357 45.0507 794.272 45.136 794.101 45.136C793.76 45.5627 793.376 45.8187 792.949 45.904C792.608 45.904 792.224 45.9467 791.797 46.032C791.456 46.1173 791.072 46.3733 790.645 46.8C790.218 47.1413 789.749 47.3547 789.237 47.44H789.109C788.853 47.44 788.554 47.44 788.213 47.44C787.957 47.3547 787.658 47.312 787.317 47.312C786.464 47.312 786.037 47.3973 786.037 47.568C785.781 47.7387 785.525 47.9093 785.269 48.08C785.098 48.2507 784.928 48.4213 784.757 48.592C783.562 49.616 782.368 50.384 781.173 50.896C780.064 51.3227 778.698 51.6213 777.077 51.792ZM777.973 54.608C777.888 54.5227 777.845 54.4373 777.845 54.352C777.845 54.096 777.973 53.968 778.229 53.968H778.357C778.784 54.1387 779.125 54.3093 779.381 54.48C779.637 54.6507 779.936 54.736 780.277 54.736C780.789 54.736 781.258 54.5227 781.685 54.096C782.112 53.6693 782.496 53.2427 782.837 52.816C783.178 52.304 783.562 51.8347 783.989 51.408C784.16 51.3227 784.288 51.2373 784.373 51.152C784.458 51.0667 784.586 50.9813 784.757 50.896C785.098 50.64 785.44 50.4693 785.781 50.384C786.208 50.2133 786.592 50.0427 786.933 49.872C787.36 49.7013 787.744 49.5307 788.085 49.36C788.512 49.104 788.938 48.976 789.365 48.976C789.792 48.976 790.09 49.0613 790.261 49.232C790.517 49.3173 790.73 49.4027 790.901 49.488C790.986 49.488 791.072 49.5307 791.157 49.616C791.669 49.616 792.266 49.3173 792.949 48.72C793.717 48.0373 794.357 47.4827 794.869 47.056C796.917 45.8613 798.88 45.136 800.757 44.88C800.842 44.7947 800.885 44.7947 800.885 44.88C801.141 44.88 801.269 44.9653 801.269 45.136C801.269 45.2213 801.226 45.264 801.141 45.264C801.312 45.4347 801.397 45.5627 801.397 45.648C801.397 45.8187 801.312 45.904 801.141 45.904L801.013 46.032C800.757 46.032 800.629 45.904 800.629 45.648C799.178 45.8187 797.77 46.288 796.405 47.056C795.125 47.7387 793.888 48.6347 792.693 49.744C792.266 50.1707 791.84 50.384 791.413 50.384C791.242 50.384 791.114 50.3413 791.029 50.256C790.602 50.1707 790.261 50.0853 790.005 50C789.749 49.9147 789.493 49.872 789.237 49.872C789.066 49.872 788.725 49.9573 788.213 50.128C787.53 50.384 786.89 50.64 786.293 50.896C785.781 51.152 785.269 51.4933 784.757 51.92C784.586 52.0907 784.416 52.2187 784.245 52.304C784.074 52.3893 783.904 52.5173 783.733 52.688C783.477 53.1147 783.178 53.5413 782.837 53.968C782.581 54.3093 782.24 54.608 781.813 54.864C781.301 55.2907 780.746 55.504 780.149 55.504C779.722 55.504 779.381 55.4187 779.125 55.248C778.784 54.992 778.4 54.7787 777.973 54.608Z" fill="white"/>
</svg>
